<?xml version="1.0" encoding="UTF-8" standalone="no"?>
<svg
   xmlns:dc="http://purl.org/dc/elements/1.1/"
   xmlns:cc="http://creativecommons.org/ns#"
   xmlns:rdf="http://www.w3.org/1999/02/22-rdf-syntax-ns#"
   xmlns:svg="http://www.w3.org/2000/svg"
   xmlns="http://www.w3.org/2000/svg"
   xmlns:sodipodi="http://sodipodi.sourceforge.net/DTD/sodipodi-0.dtd"
   xmlns:inkscape="http://www.inkscape.org/namespaces/inkscape"
   width="72mm"
   height="298mm"
   viewBox="0 0 72 298"
   version="1.1"
   id="svg1104"
   inkscape:version="1.0 (4035a4fb49, 2020-05-01)"
   sodipodi:docname="mic_logo.svg">
  <defs
     id="defs1098" />
  <sodipodi:namedview
     id="base"
     pagecolor="#ffffff"
     bordercolor="#666666"
     borderopacity="1.0"
     inkscape:pageopacity="0.0"
     inkscape:pageshadow="2"
     inkscape:zoom="0.24748737"
     inkscape:cx="357.99312"
     inkscape:cy="595.49786"
     inkscape:document-units="mm"
     inkscape:current-layer="layer1"
     inkscape:document-rotation="0"
     showgrid="false"
     inkscape:window-width="1920"
     inkscape:window-height="1017"
     inkscape:window-x="-8"
     inkscape:window-y="-8"
     inkscape:window-maximized="1" />
  <metadata
     id="metadata1101">
    <rdf:RDF>
      <cc:Work
         rdf:about="">
        <dc:format>image/svg+xml</dc:format>
        <dc:type
           rdf:resource="http://purl.org/dc/dcmitype/StillImage" />
        <dc:title></dc:title>
      </cc:Work>
    </rdf:RDF>
  </metadata>
  <g
     inkscape:label="Layer 1"
     inkscape:groupmode="layer"
     id="layer1">
    <circle
       id="path1136"
       style="fill:#000000;stroke:#000000;stroke-width:0.264583"
       cx="106.04738"
       cy="272.94189"
       r="0.070755593" />
    <g
       id="g1728"
       transform="translate(369.41006,251.79588)">
      <path
         id="path1126"
         d="m -348.11844,-66.8967 c 0.0885,1.157688 0.0844,11.688456 -0.005,11.802936 -0.0405,0.05212 -0.59804,0.09014 -1.23902,0.08448 -1.00243,-0.0088 -1.18232,-0.08676 -1.28638,-0.557296 -0.12117,-0.547909 -0.17021,-10.084988 -0.0589,-11.466157 0.13638,-1.693743 2.4584,-1.571725 2.58885,0.136035 z m 6.79189,15.274453 c 0.24944,1.002491 0.77307,7.629121 1.66269,21.0418 0.35436,5.342555 1.03944,15.510072 1.52239,22.5944948 1.04809,15.3743127 1.0975,16.2644181 0.91581,16.4983151 -0.0775,0.09986 -1.76237,0.182397 -3.74402,0.1834185 -19.0224,0.00981 -20.2946,-0.019531 -20.46419,-0.4718902 -0.16229,-0.4328992 0.37977,-9.6261683 1.83211,-31.0722842 0.35199,-5.197482 0.9194,-13.728425 1.26095,-18.957633 0.49316,-7.550424 0.7376,-9.715363 1.18744,-10.516603 0.56403,-1.004647 0.57603,-1.009681 2.82548,-1.183181 1.24249,-0.09583 4.32007,-0.142214 6.83908,-0.103074 4.98734,0.0775 5.74828,0.322805 6.16226,1.986637 z m 6.51152,64.147767 c 1.50131,2.661034 1.32973,2.954029 -1.71943,2.936052 -2.53178,-0.01493 -19.30099,-0.03582 -24.65139,-0.03071 -1.83962,0.0018 -3.4675,-0.09213 -3.6175,-0.208646 -0.3636,-0.282431 -0.24205,-0.615082 1.08257,-2.963171 l 1.12727,-1.998238 1.11492,-0.10585 c 1.10867,-0.105257 20.91362,-0.147731 23.65297,-0.05073 0.78907,0.02795 1.53553,0.134447 1.65881,0.236682 0.12328,0.102217 0.73158,1.085307 1.35178,2.184608 z m 2.63335,6.578091 c 0.63031,1.535009 0.85286,3.549062 0.4104,3.713991 -0.1467,0.0547 -0.5433,-0.115371 -0.88129,-0.377904 -0.51618,-0.400961 -0.67945,-0.393759 -1.02029,0.04503 -0.55602,0.715814 -1.01347,0.280961 -0.96359,-0.916013 0.0331,-0.794828 -0.10802,-1.088987 -0.76869,-1.602178 -0.44507,-0.345727 -0.91686,-0.588475 -1.04841,-0.539442 -0.5008,0.186679 -0.4544,2.029733 0.0682,2.707478 l 0.52871,0.685705 -1.3091,0.07879 c -1.25775,0.0757 -1.31899,0.04995 -1.56122,-0.656466 -0.14932,-0.435431 -0.58754,-0.953816 -1.07466,-1.271239 l -0.82252,-0.535981 -0.81133,1.170496 c -1.16179,1.676017 -1.80687,1.745806 -3.39192,0.366971 l -1.2033,-1.046752 -0.90673,1.037705 c -0.81448,0.932157 -1.01134,1.026479 -1.93518,0.92739 -0.73942,-0.0793 -1.30218,-0.346939 -2.00252,-0.952348 l -0.97409,-0.842048 -0.82929,0.695948 c -1.08886,0.913802 -1.44438,1.067963 -2.41977,1.049338 -0.79386,-0.01515 -0.83045,-0.04492 -1.42114,-1.156242 -0.78263,-1.47245 -1.25527,-1.447571 -2.55218,0.134329 -0.84711,1.033329 -1.04021,1.144534 -1.87106,1.077883 -1.05669,-0.08477 -1.27051,-0.348879 -0.66113,-0.81658 0.26832,-0.20588 0.37811,-0.668375 0.30222,-1.272546 -0.1738,-1.383324 -0.57192,-1.543864 -1.51907,-0.612576 -0.65158,0.640672 -0.79448,0.950095 -0.73439,1.590174 0.0897,0.955947 -0.49132,1.420475 -0.98013,0.78357 -0.25371,-0.330567 -0.49485,-0.349136 -0.9482,-0.07302 -0.94696,0.576764 -1.15342,0.412042 -1.30703,-1.042854 -0.12093,-1.145247 -0.0124,-1.566548 0.7054,-2.738296 0.77097,-1.258519 0.93672,-1.402722 1.81752,-1.581283 l 0.96918,-0.196476 -0.0682,0.84621 c -0.0375,0.46541 0.0546,0.941567 0.20463,1.05811 0.34032,0.264359 1.37624,-0.57362 1.74492,-1.411529 0.2116,-0.480892 0.45046,-0.619514 1.01927,-0.591366 1.16039,0.05738 1.36067,0.361727 0.64519,0.980419 -0.99908,0.863942 -0.56126,3.188731 0.45874,2.435753 1.41904,-1.047582 1.62888,-1.363361 1.49039,-2.242858 -0.17896,-1.136432 0.39512,-1.537675 1.07504,-0.751393 0.43348,0.501282 0.5647,0.507582 1.11044,0.05333 0.35266,-0.293592 1.10333,-0.510867 1.74521,-0.505214 0.95165,0.0084 1.23988,0.13354 1.85845,0.806904 0.72044,0.784253 0.73992,0.786932 1.22086,0.167786 0.29164,-0.375449 0.91728,-0.720925 1.55139,-0.856653 0.91748,-0.196388 1.17231,-0.128849 1.86522,0.494366 0.76433,0.687462 0.83446,0.69448 1.47278,0.147345 0.90125,-0.772516 1.86218,-0.903245 2.86161,-0.389301 0.62966,0.323791 0.99018,0.321047 1.50329,-0.01143 0.84442,-0.547176 0.9501,-0.461137 1.15904,0.943708 0.13028,0.875937 0.36101,1.285505 1.00673,1.787085 0.85492,0.664082 1.13735,0.588881 1.43102,-0.38103 0.17054,-0.563374 -0.49328,-2.009342 -0.99181,-2.160289 -0.62004,-0.187743 -0.16007,-0.489812 0.75438,-0.495387 0.7034,-0.0043 1.04174,0.177616 2.00878,1.080048 1.22621,1.144274 1.72897,1.154677 1.31469,0.0272 -0.27199,-0.740192 0.0186,-1.125156 0.75441,-0.999586 0.89704,0.15308 1.28326,0.582165 1.92017,2.133252 z m -1.53741,-0.872421 c -0.24592,0.316605 0.27014,2.249784 0.68703,2.573617 0.56004,0.435026 0.9117,0.211556 0.78611,-0.499551 -0.19231,-1.088841 -1.16961,-2.464811 -1.47314,-2.074066 z m -10.79463,-0.336371 c -0.17273,0.222366 -0.4097,0.716724 -0.52661,1.098567 -0.19019,0.621207 -0.0996,0.782194 0.86349,1.53012 l 1.07605,0.835848 0.38019,-0.761585 c 0.56448,-1.130717 0.45232,-1.60699 -0.56438,-2.396735 -0.76513,-0.594339 -0.96604,-0.644405 -1.22874,-0.306215 z m -5.12081,0.639737 c -0.88834,0.982733 -0.84129,1.786447 0.14957,2.556115 0.68912,0.535289 0.73947,0.52654 1.32186,-0.229562 0.73153,-0.949897 0.78993,-1.351531 0.30902,-2.128649 -0.6293,-1.01695 -1.00263,-1.058452 -1.78046,-0.197903 z m -5.3247,-0.227712 c -0.91164,0.77864 -0.97274,1.190336 -0.34136,2.299047 0.5092,0.894162 0.80336,0.885632 1.78944,-0.0519 0.58867,-0.559694 0.70618,-0.845383 0.60495,-1.471141 -0.0729,-0.451042 -0.36238,-0.919229 -0.69047,-1.116933 -0.45382,-0.273456 -0.72171,-0.206427 -1.36257,0.340927 z m -10.33226,0.53083 c -0.50394,0.483744 -0.9688,1.953385 -0.68709,2.172213 0.41488,0.322268 1.26868,-0.522709 1.47341,-1.458202 0.22762,-1.040324 -0.11871,-1.354849 -0.78631,-0.714014 z m 35.63451,8.073661 c -0.0174,1.149242 -0.14814,2.239421 -0.29044,2.422636 -0.31818,0.409617 -0.33306,0.410022 -15.56283,0.410763 -15.79288,7.8e-4 -23.13311,-0.08391 -23.37223,-0.269652 -0.30676,-0.238282 -0.36602,-2.653499 -0.0901,-3.67174 0.14012,-0.51696 0.44211,-1.068966 0.67112,-1.226675 0.229,-0.157716 6.40405,-0.286694 13.7223,-0.286645 23.76126,1.53e-4 24.33916,0.0085 24.74861,0.357049 0.11292,0.09608 0.19101,1.11503 0.17356,2.264266 z m -2.22981,6.764974 c -0.78533,2.115336 -0.9396,2.367119 -1.95914,3.197544 -0.96152,0.783164 -1.12123,1.015406 -1.21753,1.770443 -0.15264,1.196641 -0.68351,1.828439 -1.19957,1.427576 -0.52126,-0.4049 -1.78769,0.649755 -2.13642,1.779175 -0.2766,0.895731 -0.7976,1.302195 -1.23432,0.962959 -0.39017,-0.303074 -2.04813,0.63378 -2.42313,1.369231 -0.19511,0.382569 -0.50071,0.55739 -0.93673,0.535848 -0.57651,-0.02851 -0.65083,-0.114983 -0.68059,-0.791884 -0.0329,-0.748048 -0.0432,-0.757363 -0.66204,-0.597855 -0.86469,0.222874 -1.25063,0.799443 -0.96478,1.441317 0.33799,0.758916 -0.3154,1.043717 -1.16393,0.507329 -0.56484,-0.357056 -0.80928,-0.353462 -1.18819,0.01746 -0.7218,0.706582 -1.6098,0.759715 -2.40278,0.143752 -0.57458,-0.446325 -0.8255,-0.473002 -1.364,-0.145026 -0.7972,0.485537 -1.22677,0.465875 -1.95015,-0.08927 -0.30189,-0.231715 -0.93407,-0.41891 -1.40481,-0.416039 -0.92061,0.0056 -1.40362,-0.247193 -1.49513,-0.782562 -0.0316,-0.184714 -0.44499,-0.564718 -0.91869,-0.844469 -0.65276,-0.385491 -0.93553,-0.412994 -1.16811,-0.113584 -0.43214,0.556332 -1.48198,-0.286712 -1.39641,-1.121351 0.0483,-0.470983 -0.16266,-0.796411 -0.87487,-1.349641 -0.98034,-0.761498 -1.37638,-0.692676 -1.06182,0.184526 0.14776,0.412076 0.0226,0.358806 -0.61987,-0.263736 -0.56462,-0.547151 -0.8189,-1.057262 -0.85143,-1.708057 -0.0562,-1.124959 -1.54285,-2.888179 -1.77861,-2.109546 -0.22004,0.726684 -0.52918,0.218502 -0.91339,-1.501427 -0.19912,-0.891398 -0.61435,-1.979201 -0.92272,-2.417338 -0.30837,-0.438136 -0.65698,-0.937126 -0.77466,-1.108853 -0.16252,-0.237153 -0.10348,-0.336682 0.24549,-0.413844 0.38525,-0.0852 0.53333,0.05576 0.9169,0.872852 0.59269,1.262569 0.91489,1.266865 1.25367,0.01671 0.26407,-0.974471 0.30426,-1.013553 1.03897,-1.010227 1.02485,0.0046 1.32332,0.273831 0.97911,0.883003 -0.20447,0.361849 -0.0969,0.787855 0.37832,1.498066 0.88886,1.328463 1.31682,1.417486 2.08154,0.433001 0.56321,-0.725054 0.5722,-0.878767 0.0958,-1.632915 -0.63567,-1.006299 -0.31186,-1.625739 0.51711,-0.989185 0.72992,0.560529 1.01346,0.570282 2.29985,0.07927 1.5836,-0.604456 3.48515,-0.406445 4.6549,0.484727 l 0.97075,0.739559 0.86172,-0.747014 c 1.23464,-1.070261 3.33233,-1.105097 4.83864,-0.08034 1.07259,0.7297 1.10195,0.7307 1.78683,0.06111 0.54718,-0.534969 1.06174,-0.691247 2.4023,-0.729622 0.93827,-0.02686 2.03782,0.121816 2.44344,0.330355 0.53182,0.27349 0.93414,0.258799 1.44279,-0.05267 0.9031,-0.553023 1.41795,-0.161115 0.96921,0.737779 -0.44882,0.89904 -0.32681,1.796675 0.3116,2.292584 0.46964,0.364805 0.56792,0.316332 1.31899,-0.650578 0.59513,-0.766154 0.78667,-1.242757 0.71826,-1.787274 -0.1174,-0.934395 -0.0983,-0.954713 0.82576,-0.880275 0.69471,0.05597 0.79864,0.135991 1.14259,0.879817 0.20812,0.450044 0.42465,0.854204 0.48121,0.898138 0.0565,0.04392 0.42633,-0.276881 0.8217,-0.712921 0.68716,-0.757807 0.68123,-0.691498 -0.13359,1.503328 z m -3.17321,0.945522 c -0.63849,0.821975 -0.76026,1.169243 -0.59627,1.700535 0.28774,0.932299 0.60553,0.875372 1.49328,-0.26748 0.81462,-1.048729 0.89825,-1.694681 0.28142,-2.17381 -0.31145,-0.241931 -0.51403,-0.114602 -1.17845,0.740752 z m -7.12279,-2.917343 c -0.0701,0.08374 -0.56182,0.599391 -1.09344,1.145319 -1.0597,1.088111 -1.03716,1.223384 0.42195,2.533111 l 0.59217,0.531558 1.06392,-1.242185 c 0.99149,-1.157574 1.03616,-1.273775 0.65558,-1.706576 -0.7064,-0.803336 -1.50842,-1.420053 -1.64021,-1.261252 z m 2.64424,3.337733 c -0.21094,0.127616 -0.67156,0.602745 -1.02354,1.055881 -0.53763,0.692126 -0.57958,0.923059 -0.2623,1.443997 0.68445,1.123782 0.88573,1.124167 2.00449,0.0039 0.8051,-0.806194 1.02234,-1.155566 0.91083,-1.465033 -0.2408,-0.668471 -1.21497,-1.28945 -1.6295,-1.038725 z m 1.90633,2.709748 c -1.32015,1.133355 -1.51599,1.420827 -1.40315,2.059732 0.15224,0.862006 0.65893,0.799571 1.68281,-0.207344 0.81235,-0.798883 0.99909,-1.612903 0.46518,-2.027636 -0.15613,-0.121268 -0.4913,-0.04241 -0.74484,0.175248 z M -348.69,32.025457 c -0.64326,-0.06079 -1.9708,1.361209 -1.88778,2.022078 0.0899,0.715252 1.26246,2.074251 1.73818,2.014489 0.52148,-0.06552 2.14951,-1.473134 2.10584,-1.820739 -0.0296,-0.235304 -0.85487,-1.388099 -1.4901,-2.081406 -0.0498,-0.05444 -0.25963,-0.114905 -0.46614,-0.134422 z m 2.15966,4.51013 c -0.95748,1.108245 -0.976,1.168279 -0.48023,1.553383 0.28365,0.220326 0.61504,0.564834 0.73646,0.765563 0.26214,0.4334 0.93358,0.179339 1.9831,-0.750367 0.66452,-0.58866 0.71188,-0.731488 0.41439,-1.249974 -0.18472,-0.321954 -0.6333,-0.784727 -0.99683,-1.028389 -0.64387,-0.431558 -0.68672,-0.413204 -1.65689,0.709784 z m 3.74394,2.07064 c -0.25899,0.121282 -0.76894,0.483511 -1.13323,0.804951 -0.57596,0.508246 -0.61658,0.671685 -0.31153,1.253585 0.30875,0.588937 0.44317,0.647539 1.12149,0.488918 0.87024,-0.203506 1.93686,-1.401822 1.66451,-1.870033 -0.36659,-0.63021 -0.88398,-0.891532 -1.34124,-0.677421 z m 1.19557,2.695317 c -0.94971,0.718007 -1.12237,1.130599 -0.63239,1.511212 0.37746,0.293197 1.98032,-0.562093 2.15893,-1.152009 0.25825,-0.852945 -0.60483,-1.056036 -1.52654,-0.359203 z m -14.89221,-9.096391 c -1.17096,1.037277 -1.21431,1.397767 -0.3064,2.548748 1.08017,1.369363 1.53033,1.373957 2.44326,0.02497 0.73398,-1.084607 0.6184,-1.466842 -0.79826,-2.639666 -0.58733,-0.486252 -0.72275,-0.479579 -1.3386,0.06595 z m 3.28217,3.960118 c -1.05853,1.009165 -1.01812,1.337115 0.29092,2.361495 0.76581,0.599288 0.9777,0.644054 1.51085,0.319335 0.9629,-0.586466 1.42238,-1.318155 1.09529,-1.744187 -0.1603,-0.208784 -0.67684,-0.69645 -1.14785,-1.083701 l -0.85642,-0.704104 z m 4.1594,2.669314 c -0.29164,0.12988 -0.74587,0.513741 -1.00942,0.853022 -0.39916,0.513871 -0.39381,0.705025 0.0321,1.144819 0.76489,0.789886 1.28539,0.973744 1.76218,0.622452 0.23567,-0.173629 0.62859,-0.462765 0.87316,-0.642523 0.80929,-0.594852 -0.70558,-2.401918 -1.65798,-1.97777 z m 2.48578,2.8123 c -1.00381,0.611385 -1.29834,1.147349 -0.83031,1.510909 0.57918,0.449884 1.82134,0.243089 2.30871,-0.384333 0.34339,-0.442068 0.30861,-0.597856 -0.22625,-1.01332 -0.48618,-0.37765 -0.77513,-0.403785 -1.25215,-0.113253 z m -12.93425,-6.376641 c -0.29774,0.233168 -0.58743,0.694131 -0.64374,1.02437 -0.0862,0.505402 0.0767,0.723673 1.03029,1.379729 l 1.13274,0.779344 0.65883,-0.716451 c 0.73654,-0.800986 0.66617,-0.996329 -0.79027,-2.194527 -0.74336,-0.611543 -0.91256,-0.644754 -1.38785,-0.272459 z m 9.92082,8.620697 c -0.60319,0.615961 -0.18575,1.117407 0.86445,1.038347 1.04973,-0.07903 1.2178,-0.567997 0.37796,-1.099577 -0.60825,-0.384986 -0.8154,-0.374778 -1.24241,0.06123 z m -2.65862,-2.412527 c -0.53632,0.411616 -0.57503,1.492094 -0.0676,1.886276 0.69997,0.543718 2.22879,-0.0305 2.13202,-0.800769 -0.0171,-0.136117 -0.38057,-0.518971 -0.80771,-0.85076 -0.62581,-0.486114 -0.86984,-0.531696 -1.25674,-0.234744 z m -3.50593,-2.794723 c -0.96589,0.741306 -0.93143,1.286647 0.13347,2.113838 1.05831,0.822069 1.39165,0.792092 2.15765,-0.194036 0.36653,-0.471842 0.31803,-0.563135 -0.73236,-1.379051 -0.94913,-0.737265 -1.19264,-0.821739 -1.55876,-0.540751 z m -8.63107,-4.644101 c -0.5524,0.980995 0.74283,3.451203 1.55274,2.961334 0.5802,-0.350919 0.57331,-1.086389 -0.0189,-2.023487 -0.80515,-1.273992 -1.20637,-1.519326 -1.53381,-0.937847 z m 10.9051,9.417467 c -0.95545,-0.292519 -1.35691,0.294388 -0.60231,0.880543 0.7076,0.549649 1.78041,0.62854 1.83337,0.134832 0.0467,-0.435458 -0.31715,-0.735575 -1.23105,-1.015377 z m -3.34418,-2.376527 c -0.60634,-0.302695 -0.8256,-0.280085 -1.04708,0.107977 -0.21488,0.376542 -0.12098,0.637489 0.40336,1.120459 0.81359,0.749421 1.87765,0.86205 2.07225,0.219341 0.14494,-0.478685 -0.21204,-0.840476 -1.42853,-1.447777 z m -4.62985,-3.128646 c -0.37136,0.478079 -0.29586,0.628337 0.95408,1.89871 0.8537,0.86765 0.9054,0.883107 1.29149,0.386072 0.48092,-0.619129 0.34991,-0.888073 -0.93616,-1.921782 -0.85259,-0.68529 -1.02248,-0.732383 -1.30941,-0.363 z"
         style="fill:#000000;stroke-width:0.264583" />
      <path
         sodipodi:nodetypes="csc"
         id="path1144"
         d="m -349.51268,-67.770772 c 4.61158,-22.206836 62.37026,-12.626151 13.12393,-67.814888 -87.42566,-97.97505 44.16484,-14.3004 37.99104,-115.84079"
         style="fill:none;stroke:#000000;stroke-width:1.033;stroke-linecap:butt;stroke-linejoin:miter;stroke-miterlimit:4;stroke-dasharray:none;stroke-opacity:1" />
    </g>
  </g>
</svg>
