<?xml version="1.0" encoding="UTF-8" standalone="no"?>
<svg
   xmlns:dc="http://purl.org/dc/elements/1.1/"
   xmlns:cc="http://creativecommons.org/ns#"
   xmlns:rdf="http://www.w3.org/1999/02/22-rdf-syntax-ns#"
   xmlns:svg="http://www.w3.org/2000/svg"
   xmlns="http://www.w3.org/2000/svg"
   xmlns:sodipodi="http://sodipodi.sourceforge.net/DTD/sodipodi-0.dtd"
   xmlns:inkscape="http://www.inkscape.org/namespaces/inkscape"
   sodipodi:docname="musical_symbol.svg"
   inkscape:version="1.0 (4035a4fb49, 2020-05-01)"
   id="svg1740"
   version="1.1"
   viewBox="0 0 368 175"
   height="175mm"
   width="368mm">
  <defs
     id="defs1734" />
  <sodipodi:namedview
     inkscape:window-maximized="1"
     inkscape:window-y="-8"
     inkscape:window-x="-8"
     inkscape:window-height="1017"
     inkscape:window-width="1920"
     showgrid="false"
     inkscape:document-rotation="0"
     inkscape:current-layer="layer1"
     inkscape:document-units="mm"
     inkscape:cy="483.79583"
     inkscape:cx="-68.089054"
     inkscape:zoom="0.34074713"
     inkscape:pageshadow="2"
     inkscape:pageopacity="0.0"
     borderopacity="1.0"
     bordercolor="#666666"
     pagecolor="#ffffff"
     id="base" />
  <metadata
     id="metadata1737">
    <rdf:RDF>
      <cc:Work
         rdf:about="">
        <dc:format>image/svg+xml</dc:format>
        <dc:type
           rdf:resource="http://purl.org/dc/dcmitype/StillImage" />
        <dc:title></dc:title>
      </cc:Work>
    </rdf:RDF>
  </metadata>
  <g
     id="layer1"
     inkscape:groupmode="layer"
     inkscape:label="Layer 1">
    <path
       id="path1756"
       d="m 255.08683,173.89301 c -1.00684,-1.27998 -0.95974,-1.96703 0.4058,-5.91995 0.84167,-2.43647 1.18637,-3.78053 1.01191,-3.94572 -0.14552,-0.1378 -1.33614,-0.32761 -2.64583,-0.42181 -2.3381,-0.16817 -2.3657,-0.16331 -1.523,0.26792 1.03917,0.53178 1.91988,1.87709 1.91988,2.9327 0,1.76573 -1.64565,1.94403 -3.23877,0.3509 -1.02319,-1.02318 -1.05573,-1.10948 -0.94083,-2.49503 l 0.11902,-1.43518 -1.34315,-0.16924 c -12.89582,-1.62486 -28.06595,-5.14738 -39.68276,-9.21435 l -2.62087,-0.91755 -1.91225,1.62633 c -6.13279,5.21581 -11.40102,5.11094 -11.34042,-0.22575 0.0199,-1.74924 0.61859,-3.19664 1.94924,-4.71216 l 0.78179,-0.89041 -2.56935,-1.14451 c -6.39679,-2.84942 -28.34524,-14.16699 -29.89542,-15.41536 -0.23395,-0.18841 -0.54437,-0.17888 -1.00464,0.0308 -2.68886,1.22513 -7.07831,-1.0143 -9.90996,-5.05592 l -1.34285,-1.91664 -8.91553,-5.11782 C 120.26514,107.40451 102.93786,98.63118 88.952826,93.048 c -3.45598,-1.37971 -3.52986,-1.40322 -3.44889,-1.09724 0.0289,0.10914 -0.0417,0.79375 -0.15678,1.52135 -0.53798,3.40049 -3.42877,7.47109 -6.43305,9.05856 -5.18862,2.74169 -10.20426,1.06712 -13.72554,-4.58253 -0.65712,-1.05432 -2.4464,-4.75492 -3.97618,-8.22357 -1.52977,-3.46864 -2.95957,-6.44393 -3.17734,-6.61174 -0.28324,-0.21826 -0.67001,-0.22943 -1.3588,-0.0392 -0.52958,0.14623 -2.27876,0.22197 -3.88707,0.16832 -2.624,-0.0875 -3.1074,-0.18386 -4.70866,-0.93835 -0.98146,-0.46243 -2.17208,-1.13268 -2.64584,-1.48944 -0.91486,-0.68893 -3.18188,-1.12173 -9.46033,-1.80612 -4.5567,-0.4967 -17.45518,-0.41641 -22.41979,0.13956 -3.6883497,0.41304 -11.2088397,1.55422 -12.68636966,1.92505 -0.58946,0.14795 -0.61259,0.0938 -0.61259,-1.43527 V 78.04836 L 2.0415363,77.73585 C 14.460686,75.56266 27.750136,75.09219 38.430146,76.44762 c 1.27793,0.16219 2.38177,0.23663 2.45298,0.16542 0.0712,-0.0712 -0.33705,-0.83141 -0.90725,-1.68934 -1.16508,-1.75299 -2.27217,-4.23879 -2.5519,-5.72989 -0.13445,-0.71667 -0.34439,-1.02919 -0.75193,-1.11932 -1.29524,-0.28642 -7.96422,-0.66378 -11.7308,-0.66378 h -4.04815 v 0.91683 c 0,0.65103 -0.24151,1.1919 -0.83303,1.8656 -1.03826,1.18252 -1.80722,1.5852 -3.80805,1.99416 -3.03406,0.62015 -5.80444,-0.55569 -7.1363497,-3.02889 -0.60415,-1.12183 -0.46469,-1.11004 -5.02361,-0.42479 -1.89177,0.28436 -3.52887996,0.51975 -3.63801996,0.52309 -0.10914,0.003 -0.19844,-0.69171 -0.19844,-1.54456 V 66.16151 L 3.4745863,65.72788 c 1.77045,-0.2385 3.26536,-0.47999 3.32201,-0.53665 0.0567,-0.0567 -0.85617,-1.88154 -2.02851,-4.0553 l -2.13153,-3.95228 -0.85963,0.12616 c -0.47279,0.0694 -1.00471996,0.31666 -1.18205996,0.54947 -0.25807,0.33879 -0.32331,-0.36903 -0.3268,-3.54545 -0.005,-4.293281 -0.026,-4.267071 1.33250996,-1.63911 l 0.79398,1.5359 1.11333,-0.15331 c 8.3403097,-1.14849 23.4768697,-1.14313 32.8042597,0.0116 l 3.16371,0.39167 1.22581,-1.14016 c 0.67419,-0.62708 1.67229,-1.41396 2.21799,-1.74861 0.5457,-0.33465 0.99219,-0.63841 0.99219,-0.67502 0,-0.0366 -0.40935,-1.009161 -0.90966,-2.161231 l -0.90966,-2.09466 -1.93461,-0.30078 c -11.2425,-1.74785 -26.23096,-2.02932 -38.3809697,-0.72077 l -1.52134996,0.16385 v -1.48434 c 0,-1.77417 -0.34368,-1.63678 5.02707996,-2.00955 11.7072097,-0.81256 24.8083497,-0.42151 33.8005197,1.00889 0.76399,0.12153 1.38907,0.12204 1.38907,0.001 0,-0.12091 -0.32018,-0.99948 -0.71151,-1.95238 -0.56444,-1.37444 -0.85155,-1.76327 -1.38906,-1.88118 -3.26786,-0.71682 -8.38932,-2.87111 -11.27492,-4.74268 l -1.57347,-1.02047 -4.49792,-0.20395 c -4.2178,-0.19125 -15.4273897,0.0879 -19.1161397,0.47598 l -1.65364996,0.17399 v -1.47507 c 0,-1.1751 0.0942,-1.50354 0.46302,-1.61509 0.90101996,-0.27249 15.05678966,-0.73978 17.89990966,-0.59089 l 2.8848,0.15107 -2.23881,-2.30759 C 12.279246,21.111069 7.3993463,11.194249 7.3993463,4.1988193 c 0,-2.97444 0.65697,-3.79441996 3.0160297,-3.76436996 3.42194,0.0436 8.01683,2.63610996 12.66947,7.14834996 5.32303,5.1624197 9.72119,11.9911697 12.75529,19.8043897 0.40859,1.05216 0.93336,1.97056 1.16615,2.0409 0.2328,0.0703 2.03061,0.55921 3.99514,1.08639 4.69637,1.26027 8.83782,2.60409 11.38392,3.69386 1.13414,0.48544 3.70993,1.31506 5.72397,1.84362 6.30741,1.65527 11.33298,3.26905 19.5369,6.27358 12.73923,4.6655 19.22396,7.40815 29.897924,12.645011 5.8191,2.85498 5.82154,2.85587 8.21584,3.01114 2.58694,0.16776 6.27871,1.1177 8.26967,2.12789 3.16261,1.60466 6.33407,4.73855 7.38861,7.30105 0.3198,0.7771 1.00506,1.30551 4.26077,3.28547 5.19135,3.15712 15.45464,9.7811 21.45059,13.84433 l 4.8709,3.30082 0.88641,-0.4227 c 0.48753,-0.23248 1.41348,-0.90853 2.05767,-1.50233 1.00498,-0.92635 1.24858,-1.03825 1.71581,-0.78819 0.53361,0.28558 0.52294,0.3344 -0.5321,2.43276 -0.67708,1.34665 -0.98372,2.23426 -0.82625,2.39172 0.13772,0.13772 2.78261,1.95784 5.87753,4.04472 l 5.62713,3.79433 0.97637,-1.2337 c 3.39075,-4.28437 7.48188,-6.31878 11.29086,-5.61466 2.95966,0.54713 5.53929,2.24253 6.35095,4.17403 0.42837,1.0194 0.46721,3.19094 0.0756,4.22461 -1.11719,2.94857 -6.00969,4.06953 -8.20036,1.87885 -1.0766,-1.0766 -1.11176,-2.81734 -0.0734,-3.63411 1.60439,-1.26201 3.33502,-1.03037 4.95817,0.66364 0.61921,0.64625 1.26256,1.17499 1.42967,1.17499 0.16711,0 0.49853,-0.29713 0.73648,-0.66029 0.8716,-1.33022 -0.19157,-3.55665 -2.13986,-4.48118 -3.63814,-1.72641 -8.76995,-0.60105 -12.34263,2.70663 -0.8516,0.78843 -1.54837,1.52448 -1.54837,1.63567 0,0.4342 17.12819,11.35796 24.51659,15.63582 12.56273,7.27377 24.79147,12.53457 37.75624,16.24272 3.00989,0.86089 3.26147,0.85421 3.46931,-0.0921 0.20168,-0.9182 1.77184,-2.81442 2.74884,-3.31964 0.38749,-0.20038 1.25795,-0.44732 1.93434,-0.54875 1.1483,-0.1722 1.26205,-0.13512 1.71631,0.55944 0.64498,0.9862 0.59188,3.1739 -0.11157,4.59569 -0.29144,0.58905 -0.45469,1.11641 -0.36279,1.17193 0.55824,0.33717 14.93096,2.80198 16.33889,2.80198 0.0896,0 0.11898,-1.26878 0.0653,-2.81951 -0.0617,-1.78286 0.003,-2.85388 0.17481,-2.913 0.14978,-0.0514 0.71768,1.25961 1.26199,2.91341 l 0.98964,3.00691 2.01909,0.17068 c 5.21201,0.44057 14.90044,0.13172 20.1955,-0.6438 1.85078,-0.27108 2.0111,-0.34695 2.38125,-1.12715 0.50165,-1.05736 1.60245,-1.25288 2.6584,-0.47217 0.72906,0.53902 0.72988,0.53903 2.54034,0.0213 0.99605,-0.28485 1.83203,-0.51791 1.85767,-0.51791 0.0257,0 -0.30139,-0.34803 -0.72676,-0.7734 -0.54946,-0.54944 -0.7734,-1.03212 -0.7734,-1.66688 0,-1.15005 0.40031,-1.52847 1.61689,-1.52847 0.77163,0 1.12858,0.17432 1.66688,0.81405 0.38666,0.45952 0.68498,1.14282 0.68498,1.56896 v 0.75492 l 1.65364,-0.66903 c 4.57158,-1.84957 9.73924,-4.92535 14.09946,-8.39199 l 2.28394,-1.81586 -1.08103,-1.10148 c -0.59455,-0.60581 -1.08101,-1.17515 -1.08101,-1.26521 0,-0.0901 1.13659,-0.24894 2.52574,-0.35309 l 2.52576,-0.18936 1.60904,-1.79716 c 0.88495,-0.98844 2.42729,-2.93617 3.42736,-4.32831 1.70341,-2.37115 2.21149,-3.3444 1.52418,-2.91962 -0.26733,0.16522 -0.7502,-0.29383 -0.76012,-0.72263 -0.003,-0.0964 0.47678,-0.25641 1.06445,-0.3557 l 1.06849,-0.18052 1.82832,-3.74534 c 2.59554,-5.31696 5.13416,-12.93424 4.41228,-13.23931 -0.21075,-0.0891 -0.1723,-0.24112 0.12192,-0.48223 0.39608,-0.32462 0.81729,-2.63671 1.39758,-7.67145 l 0.14332,-1.2435 -1.26875,0.15027 c -1.42455,0.16871 -2.63785,-0.30199 -3.33164,-1.29252 -0.55377,-0.79064 -0.52184,-1.87874 0.0709,-2.41517 1.03717,-0.93863 3.1859,-0.2195 2.51309,0.84106 -0.17719,0.27934 -0.65032,0.44727 -1.29135,0.45838 -1.19676,0.0207 -1.4392,0.42985 -0.60219,1.01611 0.90599,0.63458 2.16964,0.52754 3.10965,-0.26341 0.74363,-0.62574 0.81404,-0.82328 0.81404,-2.28388 0,-1.18311 -0.15182,-1.84783 -0.58378,-2.55617 -0.50109,-0.82171 -0.51379,-0.90107 -0.0896,-0.56039 0.47728,0.38329 0.48792,0.32142 0.31113,-1.80816 -0.21786,-2.62456 -1.25164,-7.85958 -2.09857,-10.62726 l -0.60725,-1.98438 -1.24412,0.09 c -1.05593,0.0764 -1.2487,0.0163 -1.27461,-0.39687 -0.0167,-0.26777 -0.0582,-0.60592 -0.092,-0.75144 -0.0338,-0.14552 -0.0796,-0.75538 -0.10179,-1.35524 -0.0396,-1.07108 -0.0605,-1.09378 -1.16477,-1.26387 -0.61847,-0.0953 -1.51731,-0.24389 -1.99742,-0.33029 -0.84802,-0.15261 -0.8681,-0.13542 -0.70303,0.6024 0.35923,1.6055 0.31335,1.56279 1.5716,1.46272 0.94494,-0.0752 1.22791,7.9e-4 1.3684,0.36688 0.11404,0.29715 0.003,0.5894 -0.31326,0.82025 -0.5646,0.41282 -2.39766,0.48333 -2.63377,0.1013 -0.11277,-0.18248 -1.19513,-5.36973 -1.19513,-5.72775 0,-0.0274 1.96649,0.40695 4.96094,1.09571 0.55211,0.12699 0.59531,0.28058 0.59531,2.11626 v 1.97929 h 0.79375 c 1.01571,0 1.00735,-0.24837 -0.095,-2.82082 -2.09963,-4.89975 -6.22718,-11.989571 -6.98262,-11.993931 -0.1819,-10e-4 -0.33073,-0.18955 -0.33073,-0.41888 0,-0.22934 -0.53419,-1.11119 -1.18708,-1.95968 -1.16305,-1.51146 -1.20994,-1.54048 -2.3151,-1.43338 -0.62042,0.0601 -0.9792,0.0391 -0.7973,-0.0468 0.1819,-0.0858 0.33073,-0.31482 0.33073,-0.50885 0,-0.19402 0.14883,-0.40631 0.33073,-0.47174 0.4109,-0.14781 -3.38825,-3.9733 -6.28385,-6.32742 -8.99094,-7.30964 -19.21079,-11.68314 -31.48542,-13.47394 -3.33092,-0.48596 -12.20383,-0.42728 -15.91433,0.10525 -6.36645,0.91372 -12.70534,2.85389 -18.81224,5.75795 -1.78263,0.84771 -3.24115,1.48176 -3.24115,1.40899 0,-0.26249 6.54933,-3.23934 9.48667,-4.31195 3.517,-1.28428 8.2238,-2.47507 12.33064,-3.11958 4.16891,-0.65425 13.98035,-0.64401 18.00249,0.0188 11.00662,1.81375 19.82801,5.48409 28.27073,11.76265 2.93648,2.18377 7.91573,6.9036 10.03364,9.51091 0.73877,0.9095 1.41724,1.65364 1.50767,1.65364 0.0904,0 0.41564,-0.7726 0.72266,-1.71689 l 0.55819,-1.7169 -3.12261,-3.23309 c -2.74746,-2.84464 -3.17421,-3.19028 -3.55193,-2.8768 -0.36457,0.30257 -0.50837,0.28476 -0.95353,-0.1181 -0.28829,-0.26092 -0.52419,-0.73926 -0.52419,-1.06298 0,-1.81718 -11.67585,-8.8042 -19.13327,-11.44966 -1.71929,-0.6099 -3.43188,-1.10891 -3.80576,-1.10891 -0.37389,0 -1.14086,-0.13814 -1.70437,-0.30697 -0.56354,-0.16884 -1.10247,-0.2291 -1.19766,-0.13392 -0.35087,0.35087 0.79142,1.20882 1.7259,1.29629 l 0.96412,0.0902 -0.75113,0.22322 c -0.4931,0.14654 -1.12935,0.0981 -1.85208,-0.1411 -0.60553,-0.20039 -1.19026,-0.33501 -1.2994,-0.29917 -0.4023,0.13211 -0.17909,-0.32295 0.51253,-1.04484 0.39102,-0.40815 0.59933,-0.74208 0.46291,-0.74208 -0.13642,0 -1.08143,-0.17649 -2.10002,-0.39219 -2.69396,-0.5705 -7.55952,-1.15016 -10.45094,-1.24509 l -2.51354,-0.0825 0.0742,0.79375 c 0.0707,0.75645 0.0552,0.76961 -0.33073,0.28016 -0.22272,-0.28247 -0.40497,-0.62826 -0.40497,-0.76841 0,-0.15891 -1.36078,-0.19331 -3.61545,-0.0914 -3.60816,0.16309 -3.61718,0.16511 -4.47777,0.99921 l -0.86233,0.8358 -0.80332,-0.57204 -0.80336,-0.57204 -3.35748,0.79096 c -1.8466,0.43502 -3.4825,0.916 -3.63533,1.06883 -0.15284,0.15284 -0.54687,0.27788 -0.87563,0.27788 -0.32877,0 -1.70394,0.40215 -3.05594,0.89365 -1.352,0.49151 -2.69631,0.97899 -2.98736,1.08329 -0.42517,0.15238 -0.45117,0.13341 -0.13229,-0.0966 0.21828,-0.15741 1.43867,-0.66119 2.71198,-1.1195 1.27331,-0.45831 2.31511,-0.93023 2.31511,-1.04873 0,-0.11849 -0.50602,0.0143 -1.12448,0.29498 -1.49786,0.67991 -1.91013,0.65171 -2.56051,-0.17513 l -0.5484,-0.69717 -1.98435,0.86519 c -1.80633,0.78758 -1.98435,0.93319 -1.98435,1.62321 0,0.84347 -0.61125,1.57158 -1.8626,2.21868 -0.45782,0.23675 -0.77802,0.48484 -0.71154,0.55132 0.0665,0.0665 1.20474,-0.41855 2.52946,-1.07784 2.7432,-1.36524 3.64413,-1.60644 1.21759,-0.32598 -1.60588,0.8474 -2.33234,1.32701 -3.88798,2.56685 -0.68913,0.54924 -0.79804,0.5779 -0.64193,0.16898 0.14932,-0.39116 0.0921,-0.45907 -0.27802,-0.33008 -0.44221,0.1541 -0.44246,0.14404 -0.005,-0.19686 0.25369,-0.19759 0.64064,-0.8677 0.8599,-1.48912 0.48504,-1.37476 0.49902,-1.67458 0.0679,-1.45621 -0.18191,0.0921 -0.14476,0.01 0.0825,-0.18282 0.67383,-0.57124 0.83559,-1.27639 0.2928,-1.27639 -0.25737,0 -0.60759,-0.13965 -0.77827,-0.31032 -0.23738,-0.23738 -0.48305,-0.23637 -1.0451,0.004 -0.66941,0.28662 -0.69033,0.27983 -0.23508,-0.0764 0.27484,-0.21507 0.6386,-0.66349 0.80837,-0.99649 0.22447,-0.44032 0.50058,-0.58509 1.01226,-0.53078 1.04039,0.11044 3.67725,-1.33007 4.21579,-2.30308 0.45481,-0.8217 1.26717,-1.05916 2.0105,-0.58767 0.20987,0.13312 1.2739,-0.13054 2.72219,-0.67454 3.59947,-1.35201 8.18192,-2.60294 12.06836,-3.29446 3.04756,-0.54224 3.51111,-0.69188 3.63171,-1.17238 0.14623,-0.58271 1.15543,-1.1706797 2.00935,-1.1706797 0.28083,0 0.70564,0.29766 0.94403,0.6614597 0.3392,0.51767 0.65683,0.66146 1.46129,0.66146 1.05302,0 1.36973,-0.34139 0.59317,-0.63938 -0.2391,-0.0917 -0.36504,-0.2365497 -0.27982,-0.3217597 0.0852,-0.0852 0.48922,0.0791 0.89776,0.3651897 1.07767,0.75453 6.08679,0.78166 7.46974,0.0404 0.51599,-0.2765597 1.15612,-0.5028397 1.42251,-0.5028397 0.69053,0 1.50788,0.4866397 1.50788,0.8977797 0,0.24146 0.75893,0.45144 2.4474,0.67716 1.34607,0.17995 3.25885,0.49451 4.25064,0.69904 2.40112,0.49515 2.47901,0.48553 2.88224,-0.35575 0.24212,-0.50517 0.54985,-0.7276 1.00663,-0.7276 0.58031,0 0.66723,0.12724 0.73702,1.07888 l 0.0791,1.07889 2.16982,0.62394 c 1.1934,0.34317 3.53904,1.15465 5.21253,1.80328 1.67349,0.64864 3.69755,1.2543 4.49792,1.34593 1.70275,0.19493 2.06523,0.38162 2.38768,1.22972 0.15009,0.3948 0.85436,0.93666 1.9019,1.46332 0.91496,0.46 2.44462,1.3399 3.39926,1.95535 l 1.73569,1.11899 1.55544,-0.31059 c 1.53664,-0.30684 2.11365,-0.79446 1.43581,-1.21339 -0.1918,-0.11854 -0.55568,-0.10477 -0.80862,0.0306 -0.25294,0.13536 -0.63357,0.24612 -0.84584,0.24612 -0.51301,0 -0.78952,-0.77258 -0.43109,-1.20445 0.22148,-0.26687 -0.22548,-0.64525 -2.00078,-1.69384 -6.21075,-3.66841 -13.56606,-6.61667 -20.8021,-8.33817 -3.02998,-0.7208597 -3.93152,-0.8159097 -3.93152,-0.4145197 0,0.4133597 -1.03492,0.8461497 -1.59687,0.6677897 -0.28522,-0.0905 -0.59129,-0.4542997 -0.68016,-0.8083997 -0.0889,-0.35411 -0.23797,-0.65268 -0.33134,-0.66349 -0.0934,-0.0108 -0.46487,-0.0737 -0.82555,-0.13986 -0.51856,-0.095 -0.58777,-0.0522 -0.33073,0.20487 0.17878,0.17879 0.32242,0.45008 0.31919,0.60288 -0.003,0.1528 -0.21563,0.005 -0.47199,-0.32788 -0.39153,-0.50876 -0.84571,-0.64561 -2.83839,-0.85519 -3.4902,-0.36709 -9.80118,-0.30722 -13.94209,0.13225 -8.85429,0.9397 -18.47157,3.8090197 -25.93489,7.7376997 -0.10914,0.0574 -0.19844,0.0321 -0.19844,-0.0563 0,-0.52786 9.2713,-4.31224 13.62604,-5.56191 7.56121,-2.1698297 11.26213,-2.6429597 20.67352,-2.6429597 h 7.97351 l 0.18958,-1.45521 c 0.10424,-0.80036 0.20711,-1.71317 0.22857,-2.02847 0.0571,-0.83928 0.22627,-0.54536 0.98777,1.71626 l 0.68418,2.032 h 1.11096 c 0.61101,0 1.19611,0.12251 1.30019,0.27225 0.10406,0.14973 1.43939,0.54918 2.96736,0.88765 8.22685,1.8223997 16.08333,4.8849697 22.44119,8.7478797 1.21031,0.73536 2.49806,1.33702 2.86165,1.33702 0.9217,0 1.68466,0.46041 1.68466,1.01661 0,0.27285 0.74488,1.01549 1.78199,1.77663 8.81036,6.46593 17.11709,16.07605 22.1062,25.57489 4.47781,8.525411 7.12693,16.977851 8.56451,27.326661 0.73057,5.2593 0.45416,15.55752 -0.5788,21.56354 -0.21275,1.23692 -0.38716,2.56902 -0.38764,2.96022 0,0.3912 -0.2917,1.64135 -0.64717,2.77813 -1.87989,6.01165 -2.61247,8.46023 -2.65009,8.8578 -0.023,0.24252 -0.17376,0.60001 -0.3351,0.79441 -0.16132,0.19441 -0.52959,0.94848 -0.81838,1.67572 -0.94943,2.39109 -2.8611,6.30468 -4.38068,8.96819 -1.37726,2.41402 -1.47132,2.68303 -1.20261,3.43958 0.20804,0.58577 0.21079,1.02901 0.01,1.54822 -0.30885,0.79692 -1.70833,1.78114 -2.54407,1.78916 -0.36028,0.004 -1.2891,0.99184 -2.91042,3.09709 -2.574,3.3423 -7.45863,8.45227 -10.84791,11.3484 -1.16417,0.99477 -2.11265,1.87149 -2.10775,1.94827 0.0549,0.85841 0.48781,2.38856 0.67579,2.38856 0.13275,0 0.24133,-0.11665 0.24133,-0.25921 0,-0.39883 2.00178,-1.32829 2.86075,-1.32829 0.42085,0 1.16973,0.27172 1.66418,0.60382 0.72266,0.48536 0.91562,0.80484 0.98359,1.62843 0.0465,0.56353 0.0135,1.30753 -0.0733,1.65334 -0.23196,0.92427 -1.6318,1.6685 -3.1405,1.66967 -1.90061,0.002 -2.58421,-0.80312 -3.20255,-3.76933 -0.26543,-1.2733 -0.52591,-2.3151 -0.57885,-2.3151 -0.081,0 -2.40303,1.7143 -2.7164,2.00541 -0.0561,0.0521 0.10226,0.40644 0.35187,0.78741 0.60796,0.92785 0.29657,1.17286 -0.38666,0.30426 l -0.54107,-0.68786 -3.02864,1.97474 c -9.1849,5.98873 -20.96074,10.31321 -33.07058,12.1446 -3.32685,0.50312 -4.28549,0.71862 -5.95313,1.33822 -0.86947,0.32304 -1.65452,0.40238 -2.91042,0.29412 -0.94588,-0.0815 -6.50636,-0.18273 -12.35663,-0.22488 l -10.6368,-0.0767 -1.07186,3.0427 c -0.58952,1.67349 -1.07147,3.13201 -1.07098,3.24115 5.3e-4,0.10914 0.19123,0.19844 0.42389,0.19844 0.73404,0 1.95823,1.55574 1.95823,2.4886 0,1.07172 -0.41085,1.48015 -1.48892,1.48015 -0.59991,0 -1.0116,-0.20046 -1.384,-0.67389 z m 21.57532,-11.32573 c 0.0872,-0.0871 0.0351,-0.31013 -0.11554,-0.49555 -0.15068,-0.18542 -0.59981,-1.25986 -0.99806,-2.38764 l -0.72406,-2.05053 h -3.43769 c -2.70597,0 -3.38489,0.0704 -3.18974,0.33073 0.13637,0.1819 0.63019,0.82788 1.09736,1.4355 1.35578,1.76336 0.47511,1.63973 -1.22034,-0.17131 l -1.51537,-1.61871 -3.83646,-0.24323 c -2.11005,-0.13378 -4.65558,-0.32066 -5.65674,-0.41528 -1.00252,-0.0948 -1.76395,-0.0693 -1.69489,0.0567 0.35352,0.64496 2.96607,5.26939 3.02379,5.3524 0.29541,0.42476 17.85105,0.62363 18.26774,0.20693 z m -22.33877,-2.0233 c -0.54578,-0.87312 -1.07078,-1.5875 -1.16665,-1.5875 -0.16449,0 -1.01781,2.24437 -1.01781,2.67699 0,0.18019 0.79919,0.32064 2.58059,0.45353 0.56894,0.0425 0.55083,-0.0281 -0.39613,-1.54302 z m -2.49782,-1.12448 c 1.17316,-3.14123 1.22507,-2.92086 -0.74497,-3.16258 -3.03606,-0.37251 -9.81353,-1.53938 -13.60171,-2.3418 -2.02391,-0.42871 -3.71095,-0.77947 -3.74898,-0.77947 -0.038,0 0.0513,0.43623 0.1985,0.96939 0.33682,1.21985 0.12082,2.32477 -0.69564,3.55853 l -0.63841,0.9647 0.8426,0.14756 c 0.46343,0.0812 2.751,0.51143 5.0835,0.95614 4.70661,0.89738 10.39666,1.79527 11.66512,1.84076 0.79722,0.0286 0.852,-0.0433 1.63999,-2.15323 z m 39.48107,1.63495 c 11.28985,-2.03912 20.5745,-5.42018 29.21928,-10.64036 4.23614,-2.55801 4.60412,-2.8685 4.31075,-3.63745 -0.13689,-0.35885 -0.19912,-1.56391 -0.13832,-2.67792 l 0.1106,-2.02547 -1.34388,0.98155 c -0.73911,0.53985 -2.44517,1.67515 -3.79124,2.52288 -1.34606,0.84773 -2.44739,1.68109 -2.44739,1.85191 0,0.43778 -1.54988,1.85695 -2.61438,2.39388 -0.49202,0.24817 -1.74217,0.54335 -2.77812,0.65594 -1.15208,0.12522 -2.96241,0.62126 -4.66167,1.27734 -1.52797,0.58994 -3.88765,1.40937 -5.24375,1.82096 -2.28081,0.69226 -2.45433,0.79297 -2.3151,1.34377 0.0828,0.32748 0.22394,0.89307 0.31366,1.25688 0.244,0.98938 -0.29702,0.80703 -0.98126,-0.33073 -0.32819,-0.54571 -0.62794,-1.03419 -0.66614,-1.08553 -0.0382,-0.0513 -1.53556,0.20581 -3.32748,0.57145 -1.79194,0.36565 -3.7343,0.73915 -4.31639,0.83001 -2.59805,0.40551 -2.42046,0.25258 -2.41051,2.07601 0.006,1.06866 -0.15174,1.94353 -0.45072,2.50285 -0.57181,1.06973 -0.63307,1.06432 3.53206,0.31203 z M 228.5881,156.2445 c -0.69924,-1.14684 -0.66214,-2.04104 0.13334,-3.21323 0.46124,-0.67968 0.5607,-1.00568 0.33073,-1.08404 -1.24714,-0.42492 -3.69941,-0.92039 -3.91029,-0.79006 -0.44641,0.2759 -0.27479,2.20683 0.30596,3.44231 0.66641,1.41772 1.93606,2.49791 2.94084,2.50198 l 0.72371,0.003 -0.52429,-0.8599 z m -4.14539,-1.19062 c -0.82337,-1.57423 -0.9174,-1.9506 -0.79327,-3.175 0.0774,-0.76398 0.0946,-1.38906 0.038,-1.38906 -0.46072,0 -9.64888,-3.03948 -13.3527,-4.41713 -4.79117,-1.78209 -11.95408,-4.86379 -15.87922,-6.83173 l -2.25318,-1.12967 -0.75462,0.60172 c -1.09786,0.87541 -2.97845,1.76678 -4.79319,2.27191 l -1.5875,0.44188 3.70417,1.78133 c 5.02796,2.41793 9.38701,4.37127 9.75485,4.37127 0.16694,0 0.87071,0.30194 1.56393,0.67097 1.20702,0.64254 6.44744,2.76861 6.82419,2.76861 0.0997,0 0.68643,-0.65484 1.3039,-1.4552 1.05122,-1.36257 1.5875,-1.77377 1.5875,-1.21722 0,0.1309 -0.41671,0.85724 -0.92604,1.61409 -0.50932,0.75685 -0.92604,1.40724 -0.92604,1.44531 0,0.23492 16.30053,5.36025 17.24446,5.42213 0.0984,0.006 -0.24151,-0.79195 -0.75526,-1.77421 z m 40.78295,0.17884 c -0.23133,-0.44733 -0.63731,-1.66671 -0.90219,-2.70972 l -0.48159,-1.89639 -3.66867,-0.32542 c -3.43416,-0.30461 -11.45219,-1.42923 -13.64042,-1.91321 -0.84094,-0.186 -1.05739,-0.12913 -1.56493,0.41112 -0.97532,1.03817 -3.27446,1.75309 -5.28191,1.64241 -2.73127,-0.15059 -6.15139,-2.09976 -7.70367,-4.39042 l -0.40814,-0.60227 -1.82728,1.13144 c -2.42253,1.5 -3.53711,2.31104 -3.53711,2.5738 0,0.25741 -0.0399,0.24559 5.82084,1.7255 8.49849,2.14599 20.94883,4.35375 21.58322,3.82726 0.2239,-0.18582 0.35619,-0.17897 0.42315,0.0219 0.088,0.26413 4.76732,0.87015 8.68529,1.12485 0.80037,0.052 1.78569,0.11662 2.18961,0.14354 l 0.73441,0.0489 z m 9.07308,0.48262 c -0.067,-0.18191 -0.4412,-1.2965 -0.83156,-2.47689 l -0.70981,-2.14616 -3.71891,-0.18878 c -2.04538,-0.10383 -3.78663,-0.12105 -3.86939,-0.0383 -0.21903,0.21902 0.39706,2.74831 0.98803,4.05636 l 0.50803,1.12447 h 3.8777 c 2.99073,0 3.84986,-0.0757 3.75591,-0.33072 z m 2.87255,-0.44951 c 1.09006,-1.29546 3.28231,-2.20505 5.34334,-2.217 1.88979,-0.011 3.06239,0.41728 4.29546,1.56865 l 0.67217,0.62766 2.37054,-0.39951 c 1.30378,-0.21974 3.60021,-0.65233 5.10317,-0.96131 2.50934,-0.51588 2.72103,-0.60639 2.58998,-1.10746 -0.0785,-0.30012 -0.2922,-1.3542 -0.47498,-2.3424 -0.18277,-0.9882 -0.45529,-1.79626 -0.6056,-1.7957 -0.15034,5.3e-4 -1.7616,0.29137 -3.58061,0.64623 -4.1253,0.80479 -9.46375,1.38797 -14.89625,1.62729 -2.86933,0.12641 -4.14711,0.27576 -4.07371,0.47617 0.0588,0.1606 0.43182,1.27426 0.82894,2.47481 0.82036,2.48027 1.29161,2.75254 2.42755,1.40257 z m -74.85918,-0.64858 c 1.03217,-0.54238 2.13739,-1.26368 2.45604,-1.60287 l 0.57938,-0.61671 -1.40899,-0.46767 c -0.77495,-0.25721 -1.87011,-0.67395 -2.4337,-0.92608 l -1.02472,-0.45843 -0.78863,0.89821 c -1.4268,1.62503 -3.41274,0.99752 -3.02224,-0.95497 0.0803,-0.4016 0.0766,-0.79959 -0.008,-0.88441 -0.31151,-0.3115 -1.15558,0.40212 -1.67128,1.41297 -0.63331,1.24139 -0.66991,2.13873 -0.12983,3.18313 0.63612,1.23012 1.57259,1.60815 3.71212,1.4985 1.52885,-0.0784 2.20027,-0.27254 3.74003,-1.08167 z m 101.42057,-3.08511 c 1.67349,-0.55403 3.49821,-1.19916 4.05492,-1.43362 l 1.01219,-0.42629 -0.94239,-1.04313 c -0.58872,-0.65165 -1.00333,-1.4241 -1.10474,-2.05821 l -0.16232,-1.01507 -2.82475,0.96545 c -1.5536,0.53099 -3.40415,1.11135 -4.11236,1.28968 l -1.28762,0.32422 0.16332,1.93205 c 0.0898,1.06262 0.24096,2.13434 0.33584,2.3816 0.21317,0.55555 0.69508,0.4648 4.86791,-0.91668 z m -62.6226,-2.2194 c 1.09753,-0.39143 2.09184,-1.15951 1.90092,-1.46842 -0.0658,-0.10645 -0.86665,-0.33805 -1.7797,-0.51468 -0.91305,-0.17663 -3.07652,-0.66895 -4.80771,-1.09403 -1.73118,-0.42508 -3.25734,-0.77287 -3.39145,-0.77287 -0.46254,0 0.94146,1.66251 2.09761,2.48383 1.2982,0.92223 3.30838,1.7278 4.30917,1.72688 0.3638,-2.6e-4 1.11582,-0.16266 1.67116,-0.36071 z m 30.35469,-2.22624 c -0.40092,-1.28975 -0.81264,-2.48037 -0.9149,-2.64584 -0.11499,-0.18607 -1.03317,-0.30084 -2.40683,-0.30084 h -2.22092 l -0.2812,0.99219 c -0.15465,0.5457 -0.35499,1.66916 -0.44521,2.49657 l -0.16404,1.50439 1.16038,0.10303 c 0.63823,0.0567 2.2497,0.12384 3.58106,0.14926 l 2.42064,0.0462 z m 11.49812,2.0733 c 4.89712,-0.41063 12.98673,-1.66386 13.39458,-2.07507 0.091,-0.0917 0.24299,-1.25336 0.33777,-2.58139 l 0.17232,-2.4146 -2.45441,0.50482 c -4.5698,0.93988 -10.56454,1.56165 -16.67578,1.72957 -3.3106,0.091 -6.01928,0.24468 -6.01928,0.34158 0,0.14675 1.03094,3.30325 1.44889,4.43605 0.15277,0.41411 5.19861,0.44452 9.79591,0.059 z m -18.94196,-2.52905 c 0.18249,-1.39488 0.27279,-2.59516 0.20067,-2.66728 -0.0721,-0.0721 -1.56727,-0.29841 -3.32254,-0.50284 -4.79835,-0.55887 -10.07063,-1.39951 -13.1635,-2.09886 -0.5294,-0.11971 -0.56839,-0.0222 -0.58945,1.47331 -0.0124,0.88082 -0.15207,2.08252 -0.31038,2.67045 -0.15831,0.58792 -0.24713,1.10966 -0.19738,1.15941 0.24797,0.24798 9.68446,1.66563 14.76099,2.21756 1.0914,0.11866 2.05309,0.2312 2.13707,0.25007 0.084,0.0189 0.30202,-1.10694 0.48452,-2.50182 z m -38.6194,1.62509 c 0.37176,-0.35556 1.66634,-1.29399 2.87683,-2.0854 l 2.20089,-1.43893 -1.93631,-0.57379 c -3.81841,-1.13151 -10.96962,-3.53219 -13.9297,-4.67623 l -3.01512,-1.16532 -1.34116,0.39828 c -0.73764,0.21906 -2.34514,0.39829 -3.57222,0.39829 -3.03129,0 -4.00324,-0.53777 -5.07613,-2.80856 -0.42796,-0.90577 -0.84807,-1.92564 -0.93359,-2.26639 -0.11706,-0.4664 -0.88804,-0.99623 -3.11923,-2.14361 -4.0544,-2.08495 -6.56333,-3.43379 -10.83604,-5.82563 -2.00144,-1.12038 -3.90644,-2.03565 -4.23334,-2.03392 -0.61177,0.003 -3.34196,0.67188 -3.5361,0.86603 -0.0599,0.0599 0.21169,1.14291 0.6035,2.40673 l 0.71239,2.29786 2.60559,1.42873 2.60559,1.42874 1.4362,-0.65752 c 3.15677,-1.44522 6.21823,-1.42664 7.18155,0.0436 0.57414,0.87626 0.51574,2.49093 -0.13633,3.7691 l -0.53476,1.0482 5.55092,2.56199 c 3.053,1.40909 7.18533,3.22165 9.18296,4.02791 3.27768,1.3229 15.70516,5.6166 16.31756,5.63772 0.13756,0.005 0.55428,-0.28228 0.92605,-0.63785 z M 327.19,145.95973 c 0.77743,-0.59978 1.40851,-1.22486 1.4024,-1.38907 -0.0228,-0.61189 -0.9362,-4.11219 -1.12146,-4.29744 -0.36905,-0.36904 -1.52572,1.0672 -1.91493,2.37773 -0.53924,1.8159 -0.49532,4.39928 0.0748,4.39928 0.0801,0 0.78177,-0.49072 1.55919,-1.0905 z m -25.43117,-0.26193 c 3.35336,-1.04759 5.87497,-2.04431 9.44692,-3.73412 2.43724,-1.15299 2.79588,-1.40184 2.51355,-1.74404 -0.49538,-0.6004 -2.40485,-1.371 -4.06792,-1.64167 -1.35342,-0.22028 -1.67299,-0.16554 -3.76497,0.6448 -1.25732,0.48703 -2.54293,0.9637 -2.85694,1.05928 -0.76846,0.2339 -2.56321,2.21647 -3.28203,3.6255 -0.68879,1.35011 -1.08249,2.61352 -0.81441,2.61352 0.10475,0 1.37636,-0.37047 2.8258,-0.82327 z m -57.47279,-0.0366 c 0.34869,-1.46195 0.4903,-3.1789 0.33185,-4.02351 -0.1463,-0.77984 -0.3202,-0.95927 -1.15426,-1.19091 -0.5401,-0.15001 -1.10106,-0.2734 -1.24659,-0.27421 -0.15234,-7.9e-4 -0.26458,0.81722 -0.26458,1.92839 0,1.42448 -0.12679,2.12337 -0.48416,2.66879 -0.26629,0.40641 -0.44488,0.77267 -0.39687,0.81391 0.0683,0.0587 1.71775,0.42321 2.90287,0.64157 0.0934,0.0172 0.23365,-0.23661 0.31174,-0.56403 z m 71.47309,-0.53974 c 0.32054,-0.48921 0.34136,-0.80736 0.10811,-1.65216 -0.55391,-2.00609 -0.64934,-2.03735 -2.84462,-0.93183 l -1.94855,0.98128 0.77512,0.32107 c 0.42633,0.17659 1.07141,0.5958 1.43352,0.93157 1.18472,1.09853 1.91809,1.2022 2.47642,0.35007 z m 3.81995,-1.01975 c 0.96162,-0.60306 2.72785,-1.79977 3.92496,-2.65935 1.99371,-1.43158 2.21046,-1.67694 2.57968,-2.92031 0.22173,-0.74658 0.40312,-1.87861 0.40312,-2.51563 0,-1.44472 0.43792,-1.25467 0.66966,0.29062 0.2939,1.95996 0.44175,1.99426 2.15223,0.49925 2.37575,-2.07647 6.3708,-6.24612 5.77707,-6.02955 -1.06132,0.38712 -3.50663,0.47109 -4.46907,0.15346 l -0.97433,-0.32156 -1.9085,1.68183 c -3.26376,2.87612 -5.84035,4.84951 -9.2507,7.08506 -0.98227,0.64389 -1.78414,1.29692 -1.78194,1.45117 0.003,0.15424 0.17555,0.75669 0.38526,1.33877 0.20968,0.58209 0.3865,1.50482 0.39288,2.05052 0.006,0.54571 0.088,0.99219 0.18145,0.99219 0.0934,0 0.95662,-0.49341 1.91823,-1.09647 z m -80.19383,0.49968 c 0.5206,-0.62728 0.64519,-1.80737 0.31524,-2.98582 -0.18168,-0.64894 -0.39643,-1.17989 -0.47721,-1.17989 -0.27533,0 -5.07393,3.26529 -4.96244,3.37678 0.17762,0.17763 3.6671,1.07101 4.28579,1.09725 0.3096,0.0131 0.68698,-0.12561 0.83862,-0.30832 z m 95.79334,-5.57396 c 2.4942,-2.45247 4.55367,-4.76176 7.2939,-8.17865 l 1.00447,-1.25252 -0.756,-0.28458 c -0.41579,-0.15652 -1.21314,-0.72398 -1.77189,-1.26102 l -1.01589,-0.97644 -0.7039,0.91798 c -2.72581,3.55482 -6.37365,7.41484 -9.81651,10.38748 l -1.43971,1.24307 0.46599,2.06011 c 0.2563,1.13306 0.51736,2.21911 0.58017,2.41344 0.14809,0.45823 2.54077,-1.51082 6.15937,-5.06887 z m -99.60126,2.53273 c 1.53575,-0.98226 2.75584,-1.905 2.71131,-2.05052 -0.0445,-0.14552 -1.00529,-0.52998 -2.13504,-0.85435 -1.86364,-0.53508 -2.12397,-0.55362 -2.8079,-0.19995 -0.92742,0.47959 -1.51156,1.28294 -1.85409,2.54987 -0.32845,1.21482 0.0455,2.34089 0.77737,2.34089 0.28385,0 1.7726,-0.80367 3.30835,-1.78594 z m -5.34088,-0.52917 c -0.0716,-1.39511 0.0234,-2.00658 0.43406,-2.79422 0.3679,-0.70563 0.43252,-1.04191 0.21528,-1.1203 -0.17073,-0.0616 -2.21541,-0.75244 -4.54375,-1.53518 -2.32833,-0.78274 -5.15293,-1.7827 -6.27688,-2.22213 l -2.04355,-0.79896 -0.66664,1.13754 c -0.36665,0.62564 -1.28443,1.67796 -2.0395,2.33847 l -1.37286,1.20095 0.77576,0.30028 c 4.70166,1.81991 14.62265,5.19853 15.46878,5.26793 0.0775,0.006 0.0997,-0.79211 0.0493,-1.77438 z m 39.23096,-0.0718 c -0.26586,-0.87809 -0.61235,-1.55616 -0.76999,-1.50682 -0.31705,0.0992 -2.00642,2.50067 -2.00642,2.85209 0,0.19478 2.87057,0.48239 3.15127,0.31572 0.0597,-0.0355 -0.10898,-0.78289 -0.37486,-1.66099 z m 15.1347,1.57325 c 3.31624,-0.27848 10.00665,-1.29898 11.95419,-1.8234 0.77627,-0.20902 1.05048,-0.4554 1.31207,-1.17884 0.52248,-1.44482 2.4932,-3.44234 4.07059,-4.12591 1.9149,-0.82984 4.70223,-0.99007 7.09713,-0.40799 l 1.85743,0.45145 1.77739,-0.96933 c 0.97756,-0.53313 2.91412,-1.72951 4.30342,-2.65862 2.62697,-1.7568 7.66043,-5.79265 7.66043,-6.14217 0,-0.11035 -0.62508,-0.88689 -1.38906,-1.72563 l -1.38906,-1.525 -2.11667,1.73737 c -4.09231,3.35896 -8.12737,5.88263 -12.96458,8.10849 -2.53474,1.16637 -8.1701,3.13573 -8.97292,3.13573 -0.21106,0 -0.6381,0.35719 -0.94896,0.79375 -0.60941,0.85586 -1.32718,0.99304 -2.31772,0.44294 -0.48885,-0.27149 -1.09215,-0.24803 -3.30729,0.12856 -4.28565,0.72861 -11.14412,1.1054 -16.77348,0.92151 l -5.06831,-0.16557 0.52488,1.65139 c 0.28869,0.90826 0.64915,2.09787 0.801,2.64357 l 0.27612,0.99219 h 5.11279 c 2.81202,0 6.63731,-0.12802 8.50061,-0.28449 z m -19.38934,-1.63374 c 1.11469,-3.98421 1.12165,-3.89997 -0.32332,-3.90811 -1.44344,-0.008 -7.52479,-0.93038 -12.38374,-1.87801 l -4.26343,-0.83148 -0.84841,0.62726 c -0.83351,0.61624 -0.84543,0.65519 -0.67848,2.21739 0.27602,2.58272 0.0212,2.38433 4.06009,3.16057 3.59932,0.69175 11.92999,1.92687 13.32844,1.97609 0.64937,0.0229 0.75844,-0.11128 1.10885,-1.36371 z m 53.87852,-3.5027 c 3.17757,-2.14743 6.23126,-4.54431 8.3216,-6.53174 l 1.32291,-1.25779 -1.44616,-1.46456 c -0.79541,-0.80551 -1.5132,-1.46457 -1.59514,-1.46457 -0.0819,0 -1.20656,0.89033 -2.49918,1.9785 -2.9165,2.45518 -6.29901,4.88085 -8.81036,6.31805 -1.05346,0.60289 -1.91667,1.17575 -1.91823,1.27302 -0.003,0.0973 0.41646,0.43598 0.9289,0.75268 0.51245,0.31671 1.24095,0.98126 1.61891,1.47679 0.37795,0.49553 0.79018,0.90096 0.91606,0.90096 0.12589,0 1.54819,-0.8916 3.16069,-1.98134 z m -139.31076,-0.33379 c -0.32116,-0.98226 -0.85783,-2.82445 -1.19258,-4.09374 l -0.60865,-2.3078 -3.46759,-1.95802 c -1.90716,-1.07691 -5.21584,-2.97662 -7.35261,-4.22158 l -3.88504,-2.26356 0.508,1.18512 c 0.72899,1.70064 1.04176,3.9813 0.75586,5.5116 -0.13259,0.70975 -0.21122,1.3125 -0.17472,1.33946 0.72091,0.53245 15.57763,8.59446 15.83791,8.59446 0.0899,0 -0.0994,-0.80367 -0.42058,-1.78594 z m 64.31691,1.36743 c -0.0883,-0.23019 -0.1606,-0.59548 -0.1606,-0.81177 0,-0.30411 -0.19232,-0.25631 -0.8484,0.21086 l -0.8484,0.60412 0.64996,0.18128 c 1.10026,0.30687 1.37961,0.26418 1.20744,-0.18449 z m -1.58758,-1.37693 1.12605,-0.7181 -0.15115,-1.5875 c -0.0831,-0.87312 -0.16831,-1.6114 -0.18928,-1.6406 -0.021,-0.0292 -1.87953,-0.58839 -4.13015,-1.24263 -19.3042,-5.61154 -33.70169,-12.75291 -58.72134,-29.12667 -1.894,-1.23951 -3.49275,-2.25364 -3.55278,-2.25364 -0.17233,0 -1.74604,3.88897 -1.74604,4.31483 0,0.21058 -0.17718,0.52993 -0.39374,0.70965 -0.31805,0.26396 -0.42403,0.24786 -0.55128,-0.0838 -0.21809,-0.56835 0.36851,-3.25131 1.01017,-4.62018 0.29252,-0.62406 0.48683,-1.17311 0.4318,-1.2201 -0.39788,-0.33974 -11.3676,-7.56712 -11.48538,-7.56712 -0.15944,0 -2.7699,5.47462 -2.7699,5.80899 0,0.45044 26.35895,17.20976 27.06739,17.20976 0.20435,0 1.76967,-0.36561 3.47849,-0.81247 1.70882,-0.44686 3.18483,-0.73773 3.28002,-0.64637 0.0952,0.0914 0.88743,1.84805 1.76056,3.90376 l 1.5875,3.73764 6.44676,3.29499 6.44677,3.29498 2.41677,0.0309 c 2.80913,0.0359 3.59455,0.40511 4.22761,1.98728 0.38522,0.96276 0.52978,1.04964 3.79274,2.27927 6.21751,2.34303 10.99436,3.81782 11.49614,3.54928 0.25316,-0.13548 1.20443,-0.24634 2.11394,-0.24634 1.92593,0 3.60992,0.69159 4.53174,1.86111 0.66042,0.83788 0.84831,0.82142 2.47659,-0.21697 z m -58.96692,-3.37827 c -0.0349,-0.0291 -0.5727,-0.30977 -1.1952,-0.62372 l -1.13181,-0.5708 0.17837,0.73672 c 0.0981,0.4052 0.28404,1.02301 0.41319,1.37292 l 0.23484,0.63619 0.782,-0.7492 c 0.43009,-0.41206 0.75347,-0.77301 0.71861,-0.80211 z m 63.41947,0.38349 c -0.18467,-0.29881 -0.90891,-0.31185 -0.90891,-0.0164 0,0.37233 0.29785,0.54389 0.68581,0.39502 0.20322,-0.078 0.30361,-0.24838 0.2231,-0.37865 z m -41.75112,-2.89074 c 0.95508,-0.73203 2.22732,-1.58135 2.82719,-1.88739 l 1.09068,-0.55642 -4.62272,-2.31805 c -2.5425,-1.27492 -4.64885,-2.29455 -4.68078,-2.26584 -0.0857,0.0771 3.42976,8.35866 3.54818,8.35866 0.0555,0 0.88237,-0.59893 1.83745,-1.33096 z m 43.65616,0.0807 c 0.55161,-1.90522 -0.27624,-3.76554 -1.50249,-3.37635 -0.62996,0.19995 -1.16027,1.2894 -1.43224,2.94237 -0.17959,1.09152 -0.17778,1.09451 0.83029,1.36456 1.50145,0.40224 1.75043,0.29214 2.10444,-0.93058 z m -50.17098,-2.18079 c -2.34374,-5.94611 -3.01229,-7.37684 -3.56467,-7.62852 -0.44549,-0.20298 -1.53903,-0.049 -4.5322,0.63798 -2.16978,0.49804 -4.12088,0.96966 -4.33578,1.04805 -0.24912,0.0909 0.3263,0.5562 1.5875,1.28381 2.8975,1.67163 10.93966,5.97303 11.16754,5.97303 0.10762,0 -0.0375,-0.59146 -0.32239,-1.31435 z m 140.22185,-2.83232 c 0.004,-0.30582 -2.60371,-2.7325 -2.93622,-2.7325 -0.0941,0 -0.59793,0.52089 -1.11961,1.15753 l -0.9485,1.15753 0.95456,0.15491 c 1.18862,0.19289 2.19848,1.10975 2.21155,2.00792 0.01,0.66164 0.0365,0.65067 0.92212,-0.37685 0.50168,-0.58208 0.91393,-1.19793 0.9161,-1.36854 z m -8.53136,1.03781 c 1.37001,-1.07181 3.64355,-3.32708 4.18111,-4.14749 0.4513,-0.68876 0.44995,-0.73344 -0.0359,-1.19849 -0.44754,-0.42838 -0.72938,-0.45596 -2.48907,-0.24365 l -1.98437,0.23942 -1.63409,1.78214 -1.6341,1.78213 1.22727,1.25677 c 0.67501,0.69123 1.27495,1.25678 1.33321,1.25678 0.0583,0 0.52443,-0.32743 1.03595,-0.72761 z m -154.60879,-4.02079 -1.25362,-4.27293 -3.06312,-1.83494 c -1.68472,-1.00922 -5.74204,-3.49261 -9.01626,-5.51865 l -5.95312,-3.68372 -1.39047,2.92294 c -0.99011,2.08134 -1.3128,3.01651 -1.12072,3.24794 0.14836,0.17876 0.8336,0.53838 1.52276,0.79915 1.45796,0.55167 2.25542,1.01921 3.40772,1.99791 0.93527,0.79435 6.6042,4.21648 16.88518,10.19295 0.57651,0.33514 1.0903,0.56725 1.14174,0.51581 0.0514,-0.0514 -0.4706,-2.01634 -1.16009,-4.36646 z m 166.61519,2.57463 c 0.91739,-0.73724 1.26616,-0.85209 2.61114,-0.8599 l 1.55234,-0.009 1.33011,-2.24895 c 1.60232,-2.70915 4.63143,-8.98167 4.43315,-9.17995 -0.0779,-0.0779 -0.52269,-0.009 -0.98841,0.15352 -0.46569,0.16235 -1.45727,0.29518 -2.2035,0.29518 h -1.35675 l -1.14533,2.3151 c -1.21058,2.44698 -3.45636,6.21935 -4.97716,8.36046 -0.50117,0.70557 -0.84717,1.44971 -0.76891,1.65364 0.199,0.5186 0.31727,0.48108 1.51332,-0.48009 z m -1.39383,-2.26611 c 2.28164,-3.35986 5.78906,-9.49904 5.54683,-9.70884 -0.21791,-0.18874 -3.4703,-1.72624 -3.65165,-1.72624 -0.11361,0 -0.26648,0.20836 -0.33969,0.46302 -0.0732,0.25466 -0.21892,0.67138 -0.32375,0.92604 -0.16335,0.39675 -0.0351,0.46302 0.89601,0.46302 0.78952,0 1.08665,0.10852 1.08665,0.39687 0,0.30235 -0.33086,0.39694 -1.38907,0.39715 l -1.38906,2.6e-4 -0.76811,1.3888 c -0.42243,0.76384 -1.47151,2.44925 -2.33124,3.74537 l -1.56314,2.35658 1.39616,1.41373 c 0.7679,0.77756 1.4851,1.41374 1.5938,1.41374 0.10869,0 0.665,-0.68828 1.23626,-1.5295 z m -12.92519,-1.31283 c 0,-0.0977 -2.44713,0.16007 -3.41124,0.35931 l -0.63315,0.13083 0.88553,0.91364 0.88554,0.91364 1.13667,-1.11555 c 0.62516,-0.61356 1.13665,-1.15439 1.13665,-1.20187 z m -178.01862,-2.14521 c -0.0701,-1.47191 0.0384,-2.10779 0.57552,-3.37404 0.36401,-0.85816 0.58145,-1.63724 0.4832,-1.73129 -0.46882,-0.44874 -17.34988,-10.32771 -24.99308,-14.62619 l -3.64776,-2.05148 -1.37932,1.17105 c -1.92609,1.63528 -2.69149,2.08985 -3.19411,1.89698 -0.23878,-0.0916 -0.43362,-0.24316 -0.43297,-0.33674 5.3e-4,-0.0936 0.6555,-0.90359 1.45521,-1.80005 0.79971,-0.89645 1.45402,-1.73707 1.45402,-1.86803 0,-0.30679 -14.41913,-7.62836 -20.10833,-10.21035 -5.296524,-2.40378 -11.642044,-5.08209 -16.271884,-6.86802 -3.86025,-1.48907 -14.85068,-5.22055 -15.37622,-5.22055 -0.18759,0 -0.69328,0.50602 -1.12376,1.12448 -0.92564,1.32984 -2.62656,2.98795 -4.23711,4.13046 -0.73998,0.52493 -1.02648,0.86583 -0.79375,0.94446 0.34752,0.11742 7.7847,2.30399 9.7838,2.87649 0.91626,0.2624 0.99079,0.23102 1.93568,-0.81486 1.17418,-1.29968 2.37151,-1.7475 4.2547,-1.59133 2.55716,0.21206 5.32336,2.57739 6.37806,5.45377 0.24966,0.68089 0.58371,1.37835 0.74231,1.54991 0.15861,0.17155 1.479,0.78494 2.93421,1.36308 14.598534,5.79987 32.809504,15.0817 54.768744,27.91471 3.63802,2.12606 6.67412,3.8691 6.74688,3.87342 0.0728,0.004 0.0934,-0.80833 0.046,-1.80588 z m 186.78993,-0.0395 c 0.94819,-1.30598 3.39953,-5.29412 3.39953,-5.53075 0,-0.18857 -3.11203,-1.7453 -3.48898,-1.7453 -0.0999,0 -1.03974,1.29916 -2.08841,2.88701 l -1.90672,2.88701 1.50868,1.44981 c 0.82976,0.79739 1.59753,1.3437 1.70614,1.21403 0.10858,-0.12967 0.49998,-0.65249 0.86976,-1.16181 z m -6.40675,-2.08153 1.43849,-0.16743 1.93733,-2.90747 1.93733,-2.90748 -0.59772,-0.47496 c -0.74232,-0.58989 -2.46944,-1.5153 -2.82805,-1.5153 -0.14687,0 -0.87559,0.90182 -1.61938,2.00404 -0.74377,1.10222 -2.11662,2.95073 -3.05076,4.1078 -0.93416,1.15707 -1.69846,2.16129 -1.69846,2.2316 0,0.11942 0.93247,0.0423 4.48122,-0.3708 z m -145.23956,-2.07792 c 0.0728,-0.0748 -0.0463,-0.24764 -0.26458,-0.38411 -8.72906,-5.45718 -16.31285,-10.22309 -19.82066,-12.45596 -2.45757,-1.56435 -4.57856,-2.84427 -4.71333,-2.84427 -0.13476,0 -0.85652,1.27811 -1.60391,2.84024 l -1.3589,2.84025 2.30517,1.48161 c 2.16988,1.39466 13.18972,8.21805 16.05001,9.93804 l 1.30943,0.7874 3.98224,-1.03361 c 2.19023,-0.56848 4.04177,-1.0948 4.11453,-1.16959 z m 156.21125,-3.44008 0.46966,-0.98489 -0.71705,-0.57176 c -0.39439,-0.31447 -1.16663,-0.82443 -1.71609,-1.13325 l -0.99904,-0.56149 -0.54192,1.03966 -0.54189,1.03966 0.84516,0.64124 c 0.83764,0.63555 2.29447,1.48475 2.58207,1.50514 0.0822,0.006 0.36078,-0.43261 0.6191,-0.97431 z m -187.6012,-2.37102 1.47889,-2.95905 -0.98562,-0.59654 c -0.54208,-0.32811 -2.67938,-1.64568 -4.74954,-2.92794 -2.07016,-1.28226 -3.88586,-2.33138 -4.0349,-2.33138 -0.14903,0 -0.29212,0.68461 -0.31797,1.52135 -0.0438,1.41791 -0.17118,4.66975 -0.20335,5.19177 -0.008,0.12696 -0.19282,0.0826 -0.4111,-0.0985 -0.31755,-0.26354 -0.39687,-1.0562 -0.39687,-3.96578 v -3.63641 l -5.09323,-3.05259 c -10.73743,-6.4354 -11.1073,-6.63313 -11.40636,-6.0979 -0.14777,0.26445 -1.02018,1.58955 -1.9387,2.94468 -1.76689,2.60674 -1.8136,2.6955 -1.41853,2.6955 0.34435,0 13.81614,7.79632 21.57661,12.4867 3.4925,2.11085 6.36615,3.82604 6.38589,3.81154 0.0197,-0.0145 0.7014,-1.35793 1.51478,-2.98541 z m 198.20975,2.59853 c 1.0406,-0.47314 1.0792,-0.54172 2.3052,-4.09524 0.68578,-1.98772 1.16203,-3.60721 1.05834,-3.59887 -0.10369,0.008 -1.12226,0.22128 -2.26346,0.4732 l -2.07489,0.45803 -1.17755,3.03253 c -0.64768,1.6679 -1.2886,3.30042 -1.42428,3.62785 -0.23757,0.57324 -0.19548,0.59509 1.1358,0.5895 0.76036,-0.003 1.85875,-0.22235 2.44084,-0.487 z m -4.28832,-1.29313 c 0.37333,-0.83674 0.97957,-2.32502 1.34721,-3.30729 l 0.66844,-1.78594 -0.58346,0.0124 c -0.32091,0.007 -1.34683,0.15562 -2.27986,0.33073 l -1.69643,0.31838 -0.76523,1.80781 c -0.64211,1.51697 -0.70972,1.87541 -0.42023,2.228 0.36422,0.44367 2.57333,1.91732 2.87416,1.91732 0.0972,0 0.4821,-0.68461 0.8554,-1.52136 z m -10.69321,-1.82013 c 0.39669,-0.87064 0.31617,-0.94666 -0.89334,-0.84326 l -0.97899,0.0837 0.57478,0.72761 c 0.71372,0.90349 0.89837,0.90804 1.29755,0.0319 z m 6.5822,-2.10333 c -0.2289,-0.22889 -2.3163,0.15023 -2.3163,0.42069 0,0.12156 0.32115,0.60269 0.71366,1.06916 l 0.71366,0.84814 0.52647,-1.08701 c 0.28956,-0.59786 0.45268,-1.1608 0.36251,-1.25098 z m -5.84923,-0.23565 c 1.12009,-0.2697 4.17534,-8.809 5.51712,-15.42005 l 0.17452,-0.8599 -1.54236,0.0186 c -2.41435,0.0291 -2.42626,0.0412 -3.26909,3.31414 -0.92951,3.60956 -2.44787,7.68277 -4.05699,10.88333 -0.67527,1.34316 -1.22777,2.54972 -1.22777,2.68124 0,0.20215 2.39543,-0.1336 4.40457,-0.61736 z m 4.44185,-0.8068 c 1.15475,-0.22096 2.12572,-0.4293 2.15768,-0.46297 0.032,-0.0337 0.48062,-1.27716 0.99695,-2.7633 0.97581,-2.80854 2.38718,-8.28296 2.69695,-10.46094 l 0.17875,-1.25677 h -0.78687 c -0.43278,0 -1.3095,-0.0708 -1.94826,-0.15731 l -1.16141,-0.15731 -0.45075,2.34012 c -0.70918,3.68188 -2.13754,8.22135 -4.0455,12.85731 -0.23101,0.56127 -0.24863,0.56082 2.36246,0.0612 z m 5.82084,-1.05833 c 1.15474,-0.22097 2.11934,-0.42931 2.14352,-0.46298 0.32372,-0.45052 0.65177,-2.19866 0.65193,-3.47413 1.6e-4,-1.24042 0.18219,-1.99884 0.78616,-3.27552 0.43227,-0.91375 0.96758,-2.69968 1.18957,-3.96875 0.53003,-3.03006 0.52435,-3.33675 -0.0577,-3.10839 -0.25466,0.0999 -1.10434,0.28765 -1.88817,0.41719 -0.78386,0.12953 -1.46593,0.27626 -1.51572,0.32606 -0.0498,0.0498 -0.38793,1.58509 -0.75139,3.41175 -0.36346,1.82666 -1.0876,4.67678 -1.6092,6.3336 -1.05852,3.36235 -1.28765,4.20304 -1.14554,4.20297 0.0533,-3e-5 1.0418,-0.18083 2.19655,-0.4018 z m -190.39314,-3.20895 c 1.15128,-2.3149 1.33889,-2.87652 1.05251,-3.15071 -0.19168,-0.18351 -2.23566,-1.54315 -4.54218,-3.02141 l -4.19368,-2.68776 -0.97018,0.64204 c -1.06242,0.70307 -2.16386,2.15212 -2.80184,3.68608 -0.39555,0.95106 -0.38903,0.99899 0.18619,1.36844 2.77056,1.7795 9.59574,5.98037 9.71634,5.98037 0.0835,0 0.78228,-1.26768 1.55284,-2.81705 z m -79.802484,-1.78946 c 1.77291,-0.83937 3.18103,-2.36255 3.76296,-4.07043 0.35391,-1.03867 0.55226,-2.43792 0.34509,-2.43446 -0.0364,5.3e-4 -0.65187,0.29827 -1.36776,0.66146 -0.71588,0.36319 -1.60885,0.65774 -1.98437,0.65454 -1.14725,-0.01 -2.77747,-0.92048 -3.81277,-2.12999 -0.99754,-1.16541 -2.02937,-3.83824 -2.02937,-5.25686 0,-0.6436 -0.15142,-0.76647 -1.38906,-1.12718 -8.13742,-2.37166 -10.03827,-2.89519 -10.14054,-2.79291 -0.14828,0.14828 2.92681,7.64334 4.11646,10.03321 1.72516,3.46567 4.15315,6.06493 6.50348,6.96225 1.55732,0.59456 4.13917,0.37942 5.99588,-0.49963 z m 67.283604,-4.37601 c 0.30019,-0.92444 0.89004,-1.89286 1.64367,-2.69855 l 1.17547,-1.25667 -1.94188,-1.24597 c -1.74041,-1.1167 -8.59343,-5.32194 -12.78979,-7.84823 l -1.5875,-0.95571 -0.57022,1.68138 c -0.31362,0.92475 -0.89653,2.40851 -1.29537,3.29723 -0.39883,0.88873 -0.67802,1.65274 -0.62041,1.6978 0.0576,0.0451 1.59303,0.93834 3.41204,1.98505 1.81901,1.0467 5.21229,3.07051 7.54062,4.49735 2.32834,1.42684 4.308,2.52539 4.39925,2.44123 0.0913,-0.0842 0.37661,-0.80187 0.63412,-1.59491 z m 15.80938,-0.59734 c 0.40392,-0.89367 0.63511,-1.72416 0.51374,-1.84553 -0.91902,-0.91903 -6.34856,-1.87699 -8.11935,-1.43255 -0.6254,0.15697 -0.36854,0.38655 2.82707,2.52691 1.93323,1.29485 3.63402,2.35916 3.77954,2.36515 0.14552,0.006 0.59507,-0.7203 0.999,-1.61398 z m 197.1676,-4.29268 c 0.42518,-4.0489 0.53988,-8.99363 0.20476,-8.82715 -0.10914,0.0542 -0.97234,0.48012 -1.91823,0.94645 l -1.71979,0.84786 -0.13229,2.64808 c -0.0728,1.45645 -0.0638,2.64781 0.0198,2.64748 0.0837,-2.6e-4 0.81756,-0.6607 1.63081,-1.46748 0.89556,-0.88845 1.54887,-1.35326 1.65672,-1.17872 0.099,0.16014 -0.6472,1.09886 -1.6796,2.11299 l -1.8577,1.82484 -0.36679,2.50684 -0.36676,2.50685 1.12456,-0.0435 c 0.7843,-0.0303 1.35032,0.1259 1.87076,0.51644 l 0.74623,0.55997 0.19211,-0.88072 c 0.10565,-0.48439 0.37354,-2.60849 0.59532,-4.72021 z m -234.49726,1.7017 c 1.66561,-2.89986 1.79889,-3.41872 1.01542,-3.95296 -0.33285,-0.22696 -3.51599,-1.97677 -7.07364,-3.88846 l -6.46847,-3.4758 -1.60927,0.82997 c -1.47663,0.76155 -1.81952,0.82996 -4.16005,0.82996 -2.41458,0 -2.65803,-0.053 -4.55969,-0.99286 -3.155624,-1.55959 -5.618804,-4.53735 -6.145474,-7.42932 -0.16782,-0.92146 -0.32181,-1.07496 -1.68994,-1.68453 -2.98856,-1.33154 -12.70972,-5.08134 -16.90308,-6.52012 l -4.28528,-1.47032 -0.17791,1.24337 c -0.0978,0.68385 -0.53001,2.35549 -0.96035,3.71475 -0.43034,1.35926 -0.74362,2.50083 -0.69619,2.53681 0.0474,0.036 2.58657,0.90872 5.64251,1.93942 12.71708,4.28919 29.102904,11.52287 42.333334,18.68848 2.03729,1.10339 3.87115,1.97791 4.07525,1.94337 0.2041,-0.0345 0.95237,-1.07483 1.66283,-2.31176 z m 29.05462,-2.86193 c 0.94589,-0.27818 2.76159,-0.65332 4.0349,-0.83363 1.2733,-0.18032 2.31451,-0.40484 2.31379,-0.49895 -0.003,-0.38829 -25.45151,-16.70757 -26.05403,-16.70757 -0.16604,0 -0.2707,0.99741 -0.2707,2.57969 0,1.41883 -0.0877,3.175 -0.19484,3.9026 l -0.19485,1.32292 1.32588,0.73119 c 1.16427,0.64206 9.37106,5.72726 14.67423,9.09263 1.01864,0.64642 2.03067,1.11718 2.24896,1.04612 0.21828,-0.0711 1.17078,-0.35681 2.11666,-0.635 z M 348.5436,89.46643 c 0.0925,-0.67515 0.16824,-1.5645 0.16824,-1.97633 v -0.74878 l -1.91823,0.87004 c -1.60763,0.72916 -1.91822,0.97297 -1.91822,1.50577 0,0.50951 0.23643,0.72633 1.19062,1.09191 1.98845,0.76184 2.28349,0.6734 2.47759,-0.74261 z m 3.97967,0.85819 0.88403,-0.36937 0.19185,-2.5591 c 0.10554,-1.4075 0.12779,-2.62317 0.0495,-2.70146 -0.0783,-0.0783 -0.98298,0.2451 -2.01041,0.71867 -1.48934,0.68648 -1.86806,0.97934 -1.86806,1.44453 0,0.32091 -0.0765,1.31531 -0.17,2.20978 l -0.16997,1.62632 h 1.10453 c 0.60749,0 1.50233,-0.16622 1.98853,-0.36937 z m -8.91839,-2.0932 c 0.56531,-0.56273 0.92112,-7.55544 0.60095,-11.81054 -0.38343,-5.09585 -0.56036,-5.89232 -2.10492,-9.47615 -0.72961,-1.6929 -1.32657,-3.22893 -1.32657,-3.41339 0,-0.18447 0.2263,-0.45652 0.5029,-0.60455 0.49088,-0.2627 0.49141,-0.30612 0.0217,-1.81491 -0.81719,-2.62567 -2.24943,-6.15823 -3.53285,-8.71369 -1.04148,-2.073671 -1.31712,-2.433931 -1.82149,-2.380591 -0.4708,0.0498 -0.61172,-0.0884 -0.67802,-0.66476 -0.0474,-0.41149 0.0453,-0.7276 0.21338,-0.7276 0.18246,0 0.11843,-0.30249 -0.16584,-0.78372 -0.34454,-0.58326 -0.54843,-0.71278 -0.79711,-0.50639 -0.53697,0.44565 -0.9484,-0.0219 -0.81314,-0.92404 0.095,-0.63321 -0.0923,-1.15606 -0.79404,-2.21762 -0.50507,-0.76399 -1.01209,-1.38907 -1.12676,-1.38907 -0.49861,0 -2.91507,0.89314 -2.91507,1.07744 0,0.11181 0.63939,1.13552 1.42086,2.27491 5.62094,8.195411 8.76382,17.007301 10.12833,28.397651 0.47136,3.9345 0.52774,5.58162 0.22874,6.68073 -0.17056,0.62692 -0.12047,0.72761 0.36205,0.72761 0.38362,0 0.56002,0.16667 0.56002,0.52916 0,0.35278 -0.1764,0.52917 -0.52917,0.52917 -0.32562,0 -0.53115,0.17811 -0.53432,0.46302 -0.003,0.25466 -0.18045,1.77271 -0.39468,3.37344 -0.21424,1.60073 -0.3905,2.99473 -0.39172,3.09779 -0.003,0.23675 3.45993,-1.29909 3.88668,-1.7239 z m -1.86039,-7.23882 c -0.36108,-0.36108 -0.15809,-0.65147 0.3982,-0.56962 0.7271,0.10699 0.9715,0.74601 0.2853,0.74601 -0.27892,0 -0.5865,-0.0794 -0.6835,-0.17639 z m 7.09965,-0.15871 c 0,-2.79888 -0.10036,-5.90731 -0.22302,-6.90764 l -0.22302,-1.81877 -1.40158,1.38417 c -1.14019,1.12605 -1.44399,1.30838 -1.62906,0.97772 -0.13155,-0.23505 -0.22749,2.46877 -0.22749,6.41185 v 6.81829 l 1.85208,-0.88838 1.85209,-0.88839 z m -222.41821,4.50228 c 0.42542,-2.22001 0.55982,-4.22094 0.35669,-5.31064 -0.18475,-0.99112 -0.28285,-1.06409 -4.95098,-3.6824 -2.61938,-1.46918 -8.25486,-4.43711 -12.5233,-6.59539 -7.28878,-3.68548 -7.79527,-3.9 -8.32758,-3.52715 -0.93528,0.65509 -2.281474,2.5215 -2.610294,3.61898 -0.27107,0.90475 -0.24499,1.11429 0.2154,1.73094 0.88095,1.17994 1.707164,1.28113 4.073844,0.49893 3.05001,-1.00804 5.44061,-0.96484 7.648,0.13821 2.33086,1.16475 3.26464,2.62356 3.11104,4.8603 -0.06,0.87312 -0.19506,1.83735 -0.30021,2.14272 -0.16814,0.48829 0.0744,0.69304 2.01199,1.69823 3.50874,1.8203 9.85253,5.31306 10.12746,5.57598 0.5556,0.5313 0.91344,0.17935 1.16794,-1.14871 z m 225.65935,-0.86696 c 1.4664,-0.64163 1.65365,-0.80803 1.65365,-1.46958 0,-0.41031 -0.16629,-0.84123 -0.36952,-0.9576 -0.50366,-0.28839 -1.3957,-1.8887 -1.59277,-2.85742 -0.21391,-1.05157 0.21331,-2.44591 1.00727,-3.28737 l 0.64291,-0.68138 -0.5271,-3.43924 c -0.28993,-1.89158 -0.58121,-3.49331 -0.6473,-3.55941 -0.0661,-0.0661 -0.78788,0.54755 -1.60399,1.36366 l -1.48383,1.48383 0.35589,3.00162 c 0.19576,1.6509 0.36179,4.87799 0.36896,7.17132 0.008,2.66991 0.10819,4.13111 0.2776,4.06241 0.14552,-0.059 1.00873,-0.43288 1.91823,-0.83084 z M 56.791356,79.51534 c -1.33734,-3.12168 -3.71437,-8.3233 -3.88363,-8.4985 -0.18303,-0.18945 -3.92011,-1.01014 -8.43661,-1.85273 l -0.89594,-0.16714 0.16714,1.25736 c 0.23266,1.75023 1.7477,4.69916 3.26183,6.34892 l 1.27332,1.38738 4.10105,0.9026 c 4.8823,1.07455 4.58895,1.0332 4.41284,0.62211 z m 6.17049,-1.79741 c 1.62675,-1.11265 3.62235,-3.06895 3.37892,-3.31238 -0.17984,-0.17984 -10.61569,-3.0035 -10.72745,-2.90255 -0.0399,0.036 0.54112,1.42191 1.29107,3.07979 0.74995,1.65788 1.58362,3.52409 1.8526,4.14715 l 0.48904,1.13283 1.13031,-0.57476 c 0.62166,-0.31612 1.78514,-1.02265 2.58551,-1.57008 z m 62.566294,-3.1884 c -0.62638,-1.78017 -2.31012,-4.4559 -3.73668,-5.93816 -3.19364,-3.31834 -7.93494,-5.39626 -12.34301,-5.40946 -1.59067,-0.005 -5.21501,0.69741 -5.20711,1.0088 0.002,0.0975 2.65161,1.5196 5.88698,3.16028 3.23537,1.64067 8.08514,4.21254 10.77728,5.71526 2.69213,1.50272 4.92582,2.709 4.96376,2.68063 0.0379,-0.0284 -0.11562,-0.57619 -0.34122,-1.21735 z m 232.43949,0.48789 c -0.0185,-2.39479 -1.83907,-10.48975 -3.4363,-15.27968 -4.44519,-13.330811 -12.54951,-25.311281 -23.0174,-34.026211 -4.02103,-3.34767 -5.30276,-4.21939 -5.56943,-3.78788 -0.14705,0.23792 -0.0925,0.44341 0.15423,0.58151 0.75186,0.42077 0.9734,1.21442 0.56663,2.02983 l -0.37968,0.7611 2.91351,2.47031 c 7.37892,6.2564 13.02978,13.49089 17.73227,22.70164 1.29757,2.541501 2.52661,4.859951 2.73124,5.152101 0.20463,0.29214 0.37404,0.8321 0.37645,1.19991 0.009,1.39972 1.18539,3.96565 2.20186,4.80353 1.07075,0.88258 2.02708,2.50881 2.02708,3.44695 0,0.32526 -0.30435,0.90906 -0.67635,1.29734 l -0.67636,0.70597 0.52663,2.88039 c 0.28964,1.58421 0.59939,3.32687 0.68834,3.87257 0.15267,0.93659 0.21664,0.99271 1.14192,1.00156 0.53911,0.005 1.27785,0.17953 1.64166,0.3875 0.90741,0.51872 1.05904,0.49016 1.0537,-0.19844 z M 68.851116,69.65961 c 0.4732,-1.30069 0.78693,-2.7131 0.81383,-3.66382 l 0.0438,-1.54715 -2.91042,-0.89387 c -1.60073,-0.49162 -3.04223,-0.89673 -3.20334,-0.90024 -0.17754,-0.004 -0.34929,0.80134 -0.43604,2.04414 -0.0787,1.12779 -0.39332,2.70537 -0.69913,3.50573 -0.30581,0.80037 -0.55607,1.58696 -0.55615,1.74799 -1.3e-4,0.29785 5.11228,1.94225 5.80062,1.86576 0.21534,-0.0239 0.70676,-0.94885 1.14685,-2.15854 z m 26.5187,-0.0277 c 0.25591,-0.67008 0.99686,-2.00953 1.64657,-2.97656 0.6497,-0.96703 1.2391,-1.85023 1.30978,-1.96268 0.29814,-0.47433 -11.8467,-5.42038 -21.97639,-8.95 -2.89585,-1.00904 -5.30499,-1.79482 -5.35363,-1.74617 -0.0487,0.0486 0.0816,0.91385 0.28945,1.92266 0.20785,1.00882 0.46011,2.87156 0.56058,4.13944 l 0.18267,2.30522 2.14723,0.70976 c 5.05926,1.67231 18.03317,6.68394 19.45399,7.51479 0.85635,0.50076 1.27011,0.27329 1.73975,-0.95646 z m -34.4302,-0.23365 c 0.69094,-1.80054 0.25438,-5.29825 -0.89298,-7.15473 -0.41917,-0.67822 -0.79619,-0.90422 -1.9123,-1.14629 -0.76461,-0.16583 -2.84872,-0.64166 -4.63135,-1.05739 -2.08564,-0.4864 -3.23923,-0.65141 -3.23579,-0.46285 0.003,0.16117 0.86614,2.1871 1.91822,4.50206 l 1.91289,4.20903 2.77812,0.72006 c 3.30383,0.85633 3.86366,0.91008 4.06319,0.39011 z m 286.578714,-2.0143 c -0.56885,-2.72221 -1.45774,-5.87807 -1.73907,-6.17427 -0.14391,-0.15151 -0.48205,-0.0161 -0.8699,0.34823 l -0.6345,0.59608 1.74519,3.67489 c 0.95986,2.02118 1.78171,3.6384 1.82629,3.59381 0.0446,-0.0446 -0.10303,-0.96202 -0.32801,-2.03874 z m 4.21111,-1.39834 c -0.0623,-0.16211 -0.4572,-0.52589 -0.87765,-0.8084 -0.9934,-0.66749 -2.13995,-2.44781 -2.13995,-3.32285 0,-0.79579 0.43638,-1.32287 1.09519,-1.32287 0.42913,0 0.43281,-0.0804 0.0545,-1.19063 -0.22313,-0.65484 -0.46506,-1.19062 -0.53761,-1.19062 -0.0726,0 -0.71686,0.44648 -1.43179,0.99218 -0.95184,0.72654 -1.27072,1.13387 -1.19094,1.52136 0.0599,0.29104 0.56657,2.33942 1.12593,4.55196 l 1.01701,4.0228 1.49923,-1.47909 c 0.8246,-0.81351 1.44833,-1.61173 1.38607,-1.77384 z M 51.320176,67.46231 c 0,-0.33427 -3.47793,-8.0903 -3.76043,-8.38602 -0.3636,-0.38062 -2.25802,1.80631 -3.05231,3.52359 -0.3579,0.77381 -0.71273,1.86913 -0.7885,2.43406 -0.15806,1.17843 -0.59743,0.97171 4.16166,1.95798 3.68306,0.76327 3.43958,0.72997 3.43958,0.47039 z m -14.48472,-5.13889 c 0.0761,-1.50684 0.32873,-3.23742 0.56694,-3.88372 0.23633,-0.64116 0.39581,-1.19962 0.35442,-1.24101 -0.19445,-0.19445 -4.85313,-0.64108 -9.61571,-0.92185 -6.81737,-0.40192 -18.8013397,-0.0459 -23.2937497,0.69197 l -0.8322,0.13669 2.15511,3.96006 2.15512,3.96005 1.20118,0.002 c 0.6606497,0.001 1.8737497,-0.17328 2.6957697,-0.38739 0.82203,-0.21411 1.94837,-0.39715 2.50299,-0.40675 2.35178,-0.0407 18.35152,0.56107 19.9261,0.74947 0.94589,0.11317 1.79336,0.17264 1.88328,0.13215 0.0899,-0.0405 0.22526,-1.29669 0.30075,-2.79157 z m 68.889684,-2.93919 c 0.89132,-0.38765 1.80703,-0.70482 2.03491,-0.70482 1.20808,0 0.28723,-0.65017 -3.49359,-2.46667 -8.786234,-4.22135 -15.316474,-6.918221 -26.964314,-11.135741 -6.43532,-2.33015 -14.22221,-4.91842 -14.7972,-4.91842 -0.084,0 0.49924,0.68461 1.29621,1.52136 1.99588,2.0955 3.62368,4.36628 4.93036,6.87789 l 1.10496,2.12388 4.30175,1.457481 c 8.26104,2.79895 17.59434,6.47422 24.52167,9.65616 l 1.699094,0.78045 1.87278,-1.24337 c 1.03003,-0.68386 2.60205,-1.56055 3.49337,-1.9482 z m 238.3475,1.32674 1.29942,-1.14344 -0.61918,-1.70083 c -0.34054,-0.93545 -1.24769,-3.04028 -2.01588,-4.67739 -1.18801,-2.531831 -1.48839,-2.976951 -2.01041,-2.979151 -0.71673,-0.003 -3.30687,-1.16143 -4.00056,-1.78921 -0.26299,-0.238 0.0682,0.53889 0.73605,1.72643 1.35556,2.410491 3.45818,7.201071 4.35443,9.921101 0.32367,0.98226 0.67133,1.78593 0.77258,1.78593 0.10126,0 0.76886,-0.51454 1.48355,-1.14344 z M 69.841006,61.14371 c 0,-1.6996 -1.94908,-6.91125 -3.06866,-8.20529 -0.53298,-0.61603 -4.7021,-1.95988 -10.95425,-3.530911 -3.67249,-0.92283 -10.90941,-2.39647 -11.0548,-2.25107 -0.0513,0.0513 0.20634,0.68455 0.57255,1.40722 l 0.66583,1.31395 2.72539,0.13101 c 3.02227,0.14528 4.92353,0.69616 7.31425,2.119271 1.97011,1.17274 4.8262,4.09338 5.75785,5.88798 0.71781,1.38269 0.85701,1.50104 2.22101,1.88822 0.80037,0.22719 2.34818,0.68956 3.43958,1.02749 2.45136,0.75901 2.38125,0.75276 2.38125,0.21213 z M 347.38827,58.01875 c 0.3054,-0.368 0.21828,-0.53575 -0.64995,-1.25142 -1.07768,-0.88831 -1.82351,-2.30056 -1.56742,-2.96792 0.15912,-0.41468 0.52824,-0.51067 1.62271,-0.42202 0.72539,0.0588 0.72454,0.10629 0.0267,-1.47736 -1.64031,-3.722381 -5.78554,-10.358741 -8.82134,-14.122701 -2.44308,-3.02904 -6.86697,-7.53444 -9.88295,-10.06505 -2.04113,-1.71264 -2.57136,-2.03734 -3.04271,-1.86333 -0.31396,0.11591 -0.69808,0.16557 -0.85363,0.11037 -0.44291,-0.1572 -1.00819,1.10234 -0.72324,1.61151 0.4521,0.80786 3.37519,3.04306 3.63863,2.78234 0.41611,-0.4118 1.48466,-0.28189 2.41607,0.29375 1.22944,0.75984 1.96279,2.05629 1.96279,3.46992 0,1.00895 0.14023,1.30879 1.00885,2.15697 0.55486,0.54181 1.09064,0.90332 1.19063,0.80335 0.1,-0.1 0.18177,0.0165 0.18177,0.25884 0,0.24234 0.5429,1.13973 1.20644,1.99419 1.20492,1.55156 1.20801,1.5534 2.39716,1.41936 1.3966,-0.15741 2.21231,0.20426 2.83389,1.25653 0.63717,1.07864 0.56613,2.31501 -0.1707,2.97133 l -0.61238,0.54546 1.17673,2.08036 c 1.27574,2.25539 1.26304,2.24842 3.81834,2.09458 0.5457,-0.0328 0.99218,0.0557 0.99218,0.19674 0,0.33024 -0.92318,0.57459 -2.18818,0.57917 l -0.99756,0.004 0.5057,0.992191 c 0.47239,0.92682 2.64663,5.96736 3.02935,7.02286 0.19052,0.52547 0.84394,0.31943 1.50212,-0.47363 z m -7.5038,-10.385691 c -0.47363,-0.83674 -1.44092,-2.40048 -2.14953,-3.47496 -1.193,-1.80901 -1.30519,-1.90811 -1.51574,-1.33895 -0.60831,1.64438 0.86937,4.33024 3.23223,5.87506 1.19393,0.78057 1.31191,0.4915 0.43304,-1.06115 z m -277.848664,0.0461 c -2.64754,-2.20971 -7.01478,-4.31077 -11.8592,-5.70541 -2.58521,-0.74424 -8.34365,-1.94382 -8.50922,-1.7726 -0.14277,0.14762 1.44617,3.49528 1.74735,3.68142 0.15303,0.0946 1.48834,0.37991 2.96736,0.63407 3.32481,0.57134 9.44628,1.97487 13.14017,3.01279 3.42703,0.96293 3.49254,0.96683 2.51354,0.14973 z m 272.961154,-3.12382 c -0.0598,-0.95875 0.0547,-1.70239 0.34999,-2.27344 0.42881,-0.8292 0.42177,-0.87326 -0.3065,-1.92418 l -0.74535,-1.07555 -0.26612,0.94638 c -0.14634,0.52051 -0.53147,1.22872 -0.85585,1.57381 l -0.58973,0.62744 1.19062,1.77481 c 0.65485,0.97615 1.21788,1.77498 1.25122,1.77517 0.0333,2e-4 0.0206,-0.6408 -0.0283,-1.42444 z m 3.2631,-2.27771 c 0.27763,-0.87475 -0.16235,-1.28458 -0.88646,-0.82572 -0.27929,0.17697 -0.29178,0.35071 -0.0569,0.7897 0.37738,0.70512 0.72671,0.71846 0.94332,0.036 z m -7.1696,-0.22394 c 0.0753,-0.12187 -0.20505,-0.62788 -0.62304,-1.12448 l -0.75999,-0.90291 -0.28739,0.74483 c -0.40195,1.04185 -0.36798,1.18721 0.30795,1.3174 1.02746,0.1979 1.22171,0.19293 1.36247,-0.0349 z m 2.01388,-1.16749 c 0.75522,-1.23869 0.66447,-2.13575 -0.33364,-3.29794 -1.16681,-1.35862 -1.46159,-1.663 -1.61047,-1.663 -0.0698,0 -0.37356,0.73045 -0.67506,1.62323 l -0.54819,1.62324 1.07771,1.28718 c 0.59271,0.70795 1.18739,1.28718 1.32151,1.28718 0.13412,0 0.47977,-0.38695 0.76814,-0.85989 z m -2.88306,-3.96356 c 0.2649,-0.76684 0.48551,-1.41479 0.49027,-1.43988 0.005,-0.0251 -0.40055,-0.18068 -0.90069,-0.34573 -1.16846,-0.38563 -2.42163,-1.67201 -2.85295,-2.92857 -0.20183,-0.58801 -0.82005,-1.38798 -1.5294,-1.97901 -1.17321,-0.97752 -1.19163,-0.98279 -1.26013,-0.36009 -0.0382,0.34757 -0.19714,1.09619 -0.35317,1.66362 l -0.28368,1.03168 2.98585,2.99433 c 1.64221,1.64689 3.03903,2.94115 3.10404,2.87613 0.065,-0.065 0.33496,-0.74563 0.59986,-1.51248 z m -6.76294,-5.59001 c 0.1695,-0.67536 -0.49109,-2.55112 -0.89844,-2.55112 -0.34348,0 -0.57097,0.67272 -0.57097,1.68851 0,1.40394 1.16231,2.08626 1.46941,0.86261 z m -1.72828,-1.9689 0.45283,-1.01142 -0.95689,-1.07967 c -0.52628,-0.59382 -1.67124,-1.54807 -2.54436,-2.12057 -2.46653,-1.61727 -2.33082,-1.57891 -2.11537,-0.59801 0.2155,0.98116 0.4315,0.96912 -2.97786,0.166 -0.90951,-0.21424 -1.65365,-0.35524 -1.65365,-0.31331 0,0.0419 1.10133,0.73627 2.4474,1.543 1.34606,0.80672 3.39989,2.17318 4.56406,3.03657 1.16417,0.86339 2.1649,1.52908 2.22385,1.47931 0.0589,-0.0498 0.31094,-0.54562 0.55999,-1.1019 z M 33.615446,27.391259 c -1.30397,-3.79004 -3.69584,-7.30833 -7.48904,-11.0159 -4.35331,-4.25503 -7.15957,-6.07238 -9.76296,-6.32253 -2.55222,-0.2452297 -4.44894,1.30798 -4.07294,3.33531 0.50279,2.71101 3.80341,6.74966 7.80884,9.55493 4.03333,2.82482 10.72714,5.75868 13.28106,5.82103 l 0.71336,0.0174 -0.47832,-1.39025 z m 289.320614,-1.93375 c -0.26789,-0.26788 -0.41214,-0.75868 -0.36452,-1.24007 0.0753,-0.76069 -0.0763,-0.89024 -3.35277,-2.86475 -1.88738,-1.13741 -3.47946,-2.02018 -3.53793,-1.9617 -0.0585,0.0585 0.0381,0.87167 0.2146,1.8071 l 0.32091,1.7008 2.01396,1.28766 c 2.50955,1.60455 2.4357,1.57716 2.4357,0.90353 0,-0.63132 0.72634,-1.86482 1.09807,-1.86482 0.13775,0 0.12452,0.22223 -0.0304,0.51177 -0.44387,0.82936 -0.31957,1.51001 0.44074,2.41358 0.68863,0.81839 0.72353,0.8293 0.95983,0.29978 0.18074,-0.40504 0.12861,-0.66608 -0.19817,-0.99288 z m 0.89963,-1.04802 c -0.18407,-0.2218 -0.38915,-0.34878 -0.45574,-0.28219 -0.18349,0.18349 0.18931,0.68546 0.50908,0.68546 0.17545,0 0.15537,-0.15181 -0.0533,-0.40327 z m 2.11143,-0.24548 c 0.36425,-0.43889 0.28146,-1.24563 -0.14229,-1.3867 -0.26982,-0.0898 -0.90549,0.97636 -0.90549,1.51873 0,0.3864 0.68964,0.2995 1.04778,-0.13203 z m -0.88244,-1.65536 c -0.22577,-0.22577 -2.01742,0.18631 -2.01742,0.46401 0,0.13893 0.12756,0.2526 0.28348,0.2526 0.15591,0 0.47384,0.19036 0.70651,0.42302 0.38764,0.38765 0.45419,0.36357 0.79555,-0.28797 0.20489,-0.39105 0.30925,-0.7743 0.23188,-0.85166 z m -74.18253,-0.0171 c 0.25466,-0.22363 0.46302,-0.68885 0.46302,-1.03384 0,-0.61373 -0.0174,-0.61827 -0.80512,-0.2109 -0.66268,0.34269 -1.31155,1.27341 -1.31155,1.88126 0,0.23557 1.17601,-0.2171 1.65365,-0.63652 z m 58.03821,-0.21392 c -0.0883,-0.23019 -0.1606,-0.89172 -0.1606,-1.47009 0,-0.99999 -0.0617,-1.07888 -1.25677,-1.60823 -1.91003,-0.84601 -7.99214,-2.85317 -8.64566,-2.85317 -0.31742,0 -0.97845,0.4141 -1.46902,0.92022 l -0.89188,0.92021 0.9638,0.4027 c 1.42118,0.59381 1.89558,0.50376 2.80545,-0.53254 0.98775,-1.12497 1.11218,-0.77412 0.13663,0.38523 -0.49993,0.59416 -0.58912,0.84578 -0.33072,0.93321 1.735,0.58701 5.67735,2.104 6.84365,2.63339 1.71996,0.7807 2.22758,0.84882 2.00512,0.26907 z m 6.1894,-0.33111 c 0,-0.12125 -0.13377,-0.88661 -0.29728,-1.70081 -0.28544,-1.42125 -0.32309,-1.47054 -0.94327,-1.23475 -0.73827,0.28069 -1.95927,0.321 -2.57426,0.085 -0.49324,-0.18927 -0.55462,-1.18495 -0.10102,-1.63857 0.17462,-0.17462 0.24871,-0.3175 0.1646,-0.3175 -0.0841,0 -0.57992,-0.17841 -1.10181,-0.39648 l -0.94893,-0.39648 0.12295,1.499 c 0.0676,0.82445 0.16323,1.53927 0.21244,1.5885 0.16087,0.16085 5.06433,2.68023 5.26814,2.70674 0.10914,0.0142 0.19844,-0.0734 0.19844,-0.19465 z m -2.13871,-0.14506 c -0.0606,-0.0555 -0.85439,-0.47395 -1.76389,-0.92985 l -1.65365,-0.82892 v 0.64509 c 0,0.56964 0.16246,0.67471 1.38906,0.89842 1.6232,0.29603 2.18139,0.35527 2.02848,0.21526 z m -57.29174,-3.90885 c 0.33625,-1.68124 2.54935,-2.53003 3.06442,-1.17529 l 0.24172,0.63576 2.59601,-0.79147 c 1.4278,-0.43531 2.91203,-0.95952 3.29828,-1.16493 0.38627,-0.2054 1.24947,-0.37345 1.91823,-0.37345 1.18047,0 1.21595,-0.0237 1.21595,-0.81115 0,-0.44613 0.12324,-1.04144 0.2739,-1.32292 0.15062,-0.28147 0.18039,-0.51139 0.0661,-0.51093 -0.11427,5.3e-4 -1.76458,0.41193 -3.66736,0.91436 -4.22275,1.11503 -8.07751,2.46231 -8.48305,2.96492 -0.16555,0.20517 -0.40368,0.35448 -0.52917,0.33179 -0.81842,-0.14793 -1.11877,0.062 -1.07173,0.74903 0.0419,0.6123 -0.0657,0.74089 -0.6793,0.81147 -0.46978,0.054 -0.78449,-0.0605 -0.88483,-0.32195 -0.13135,-0.34229 -0.40121,-0.28189 -1.72401,0.38585 -1.30121,0.65685 -1.52792,0.86938 -1.33122,1.248 0.13039,0.25097 0.14133,0.69444 0.0243,0.98548 -0.11701,0.29104 -0.22111,0.60847 -0.23134,0.7054 -0.0102,0.0969 1.28065,-0.43128 2.86861,-1.17378 2.49613,-1.16715 2.90714,-1.44972 3.03444,-2.08619 z m 70.27837,2.28999 c -0.18116,-0.21828 -0.52316,-0.39309 -0.75999,-0.38846 -0.36179,0.007 -0.34851,0.0705 0.0829,0.39687 0.66849,0.50562 1.09921,0.50026 0.67704,-0.008 z m -66.95094,-1.31705 c 0.90388,-0.46741 2.16266,-0.52685 2.56824,-0.12126 0.18304,0.18303 0.5932,0.20071 1.17274,0.0505 0.79349,-0.20561 0.91295,-0.35802 1.089,-1.38927 0.10876,-0.63707 0.1617,-1.19436 0.11765,-1.23841 -0.0441,-0.044 -1.2441,0.28375 -2.66676,0.72845 -2.28884,0.71545 -2.57062,0.86986 -2.44739,1.34107 0.0995,0.38031 0.0337,0.49204 -0.22984,0.39089 -0.203,-0.0779 -0.44466,-0.0194 -0.53702,0.13006 -0.0989,0.16004 -0.61887,0.20461 -1.26524,0.10846 l -1.09733,-0.16324 0.60976,0.5294 c 0.64555,0.56049 0.98207,0.51455 2.68619,-0.36668 z m 2.12035,0.40134 c 0.21407,-0.13538 0.31233,-0.32302 0.21838,-0.41698 -0.23134,-0.23134 -1.26905,0.11576 -1.26905,0.42448 0,0.31482 0.54718,0.31092 1.05067,-0.007 z m 47.63267,-0.80408 c 0,-0.55748 -0.26104,-0.62912 -1.28937,-0.35388 l -0.62793,0.16807 0.62793,0.34811 c 0.89469,0.49601 1.28937,0.44632 1.28937,-0.1623 z m -52.38751,-0.41578 c 0,-0.37797 0.0378,-0.37797 0.41578,0 0.22867,0.22868 0.55609,0.40638 0.7276,0.39489 0.21774,-0.0146 0.21155,-0.0613 -0.0206,-0.15489 -0.18281,-0.0737 -0.26877,-0.23692 -0.19102,-0.36271 0.0777,-0.12579 -0.11526,-0.36604 -0.42888,-0.53389 -0.44761,-0.23955 -0.61901,-0.22818 -0.79711,0.0529 -0.30842,0.48675 -0.29296,1.01951 0.0296,1.01951 0.14552,0 0.26458,-0.1871 0.26458,-0.41577 z m 40.49214,-0.81614 c 0.58888,-0.53203 0.97618,-1.05728 0.86063,-1.16721 -0.43135,-0.41045 -5.55998,-1.34701 -7.08922,-1.2946 -4.21111,0.14434 -4.86169,0.10153 -5.36387,-0.35294 -0.38301,-0.34661 -0.99253,-0.45125 -2.62842,-0.45125 h -2.12979 l -0.28326,1.11594 c -0.15579,0.61377 -0.25959,1.13383 -0.23062,1.15568 0.029,0.0219 1.10879,0.10272 2.39964,0.17969 2.14646,0.12799 2.35823,0.0971 2.47825,-0.36193 0.0737,-0.28174 0.36335,-0.50188 0.66043,-0.50188 0.38613,0 0.49426,0.13338 0.40012,0.49344 -0.11631,0.44477 0.18955,0.53797 3.1009,0.9449 1.77646,0.2483 3.87447,0.6084 4.66224,0.80022 2.03552,0.49564 1.98441,0.5047 3.16297,-0.56006 z m -13.50058,-2.14152 c 0.0103,-0.51164 0.50887,-0.92275 0.92509,-0.76303 0.36859,0.14145 0.39227,0.24761 0.1266,0.56772 -0.3393,0.40882 -1.05878,0.54243 -1.05169,0.19531 z m -15.26689,2.3961 c 0.12062,-0.0746 -0.17531,-0.40596 -0.65765,-0.73646 l -0.87696,-0.6009 -0.33253,0.79085 c -0.18288,0.43497 -0.33253,0.84997 -0.33253,0.92221 0,0.14949 1.86542,-0.16912 2.19967,-0.3757 z m 38.29302,-1.06717 c 0.35751,-0.18092 0.94769,-0.33432 1.31149,-0.34089 0.50562,-0.009 0.56795,-0.0662 0.26458,-0.24242 -0.65783,-0.38202 -6.12717,-2.13636 -6.58529,-2.11228 -0.61386,0.0323 -2.30675,2.05588 -1.84359,2.20377 0.19751,0.0631 1.60925,0.51627 3.13721,1.00713 2.71773,0.87307 2.78125,0.88074 2.92185,0.35306 0.0791,-0.29668 0.43625,-0.68745 0.79375,-0.86837 z m -48.1656,0.88628 c 0,-0.59447 -0.70604,-1.03382 -1.20902,-0.75234 -0.39661,0.22196 -0.37806,0.29336 0.17731,0.68236 0.75674,0.53004 1.03171,0.54869 1.03171,0.07 z m 12.53331,-1.41924 c 0.65196,-0.69001 1.154,-1.2859 1.11572,-1.32419 -0.0383,-0.0383 -0.71398,0.0612 -1.50151,0.22117 -0.78756,0.15994 -1.84431,0.34472 -2.34836,0.41061 -0.50406,0.0659 -0.95602,0.15939 -1.00441,0.20776 -0.11227,0.11227 2.09102,1.7392 2.35532,1.7392 0.10885,0 0.7313,-0.56455 1.38324,-1.25455 z m -16.23748,0.60285 c 0.58401,-0.32524 0.60685,-0.38956 0.19507,-0.54939 -0.46468,-0.18036 -1.2534,0.26285 -1.2534,0.70432 0,0.31912 0.28095,0.278 1.05833,-0.15493 z m 23.30276,-0.10403 1.21007,-0.17031 -0.50051,-1.14293 -0.50051,-1.14293 -2.42933,0.18427 c -1.33614,0.10135 -2.47607,0.22584 -2.5332,0.27664 -0.0571,0.0508 0.0503,0.27815 0.23879,0.50521 0.28914,0.34839 0.22606,0.53449 -0.40408,1.19219 l -0.74668,0.77937 2.22772,-0.1556 c 1.22523,-0.0856 2.77223,-0.23223 3.43773,-0.32591 z m 21.42114,-1.23986 c 0.25652,-0.3091 0.26438,-0.48238 0.0324,-0.71437 -0.16846,-0.16846 -0.30628,-0.56291 -0.30628,-0.87656 0,-0.49798 -0.25993,-0.62469 -2.05052,-0.99962 -2.08868,-0.43734 -4.70263,-0.86719 -6.47486,-1.06475 -0.63243,-0.0705 -1.09368,0.0215 -1.28918,0.25702 -0.44003,0.53022 -1.37335,0.45038 -1.89802,-0.16238 -0.57914,-0.67641 -0.89439,-0.66821 -1.26968,0.033 -0.24458,0.45701 -0.20473,0.691 0.21296,1.25047 0.95528,1.27949 3.66165,1.46998 6.20451,0.43672 0.89471,-0.36356 1.67971,-0.6081 1.74437,-0.54342 0.16071,0.16071 -1.57726,1.20222 -2.00821,1.20345 -0.1905,5.3e-4 -0.28136,0.10614 -0.20193,0.23465 0.0794,0.12851 0.77187,0.31206 1.53876,0.40788 0.7669,0.0958 1.98887,0.33721 2.71547,0.53643 1.78266,0.48875 2.64544,0.48916 3.05022,0.001 z m -19.58848,-0.94722 c 0,-0.1277 -0.23812,-0.23219 -0.52916,-0.23219 -0.50845,0 -0.71731,0.51743 -0.35507,0.87965 0.20029,0.2003 0.88423,-0.3005 0.88423,-0.64746 z m -8.64786,0.0704 c 0.45384,-0.17893 0.45008,-0.21669 -0.0678,-0.68534 -0.30141,-0.27279 -0.57708,-0.4471 -0.61256,-0.38736 -0.70565,1.18791 -0.72869,1.29918 -0.26522,1.28065 0.25591,-0.0102 0.68141,-0.1038 0.94554,-0.20795 z m 6.72678,-0.69221 c 0.0348,-0.0251 -0.13674,-0.55495 -0.38124,-1.17738 -0.43011,-1.09496 -0.47511,-1.1265 -1.3862,-0.9715 -0.51793,0.0881 -1.86873,0.21469 -3.00179,0.2813 -1.13305,0.0666 -2.19684,0.20562 -2.36395,0.30891 -0.19579,0.12101 0.0883,0.52558 0.79867,1.13741 l 1.10257,0.94959 2.58433,-0.24133 c 1.42137,-0.13273 2.61282,-0.26188 2.64761,-0.287 z m 2.40604,-0.6295 c 0.0484,-0.34223 0.0164,-0.90777 -0.0712,-1.25677 -0.14139,-0.56343 -0.30697,-0.63455 -1.47714,-0.63455 -0.73583,0 -1.31786,0.1215 -1.31786,0.27512 0,0.15132 0.24415,0.75373 0.54258,1.33868 0.48328,0.94731 0.6351,1.0546 1.38906,0.98165 0.65765,-0.0636 0.86614,-0.22071 0.93456,-0.70413 z m 4.54377,0.1592 c 0,-0.32742 0.17243,-0.92274 0.38118,-1.32292 l 0.37955,-0.7276 h -2.5287 c -2.49325,0 -2.52648,0.008 -2.36919,0.59531 0.0878,0.32742 0.16116,0.85668 0.16314,1.17613 0.003,0.50196 0.17426,0.59427 1.2604,0.67991 2.81411,0.2219 2.71187,0.237 2.71362,-0.40083 z m 2.90877,-2.57969 c 0,-0.14552 -0.11202,-0.26458 -0.24897,-0.26458 -0.13692,0 -0.32255,0.11906 -0.41248,0.26458 -0.0899,0.14552 0.022,0.26458 0.24897,0.26458 0.22685,0 0.41248,-0.11906 0.41248,-0.26458 z m 5.89873,-3.3734397 c -0.2305,-0.69122 -0.46789,-1.31285 -0.52747,-1.3814 -0.21868,-0.25152 -0.60076,0.67707 -0.60471,1.4696 -0.005,0.97329 0.15394,1.16857 0.95004,1.16857 0.59979,0 0.60024,-0.003 0.18214,-1.25677 z M 196.48823,162.21967 c -0.68981,-0.6898 0.39084,-2.71451 1.26896,-2.37754 0.61718,0.23683 0.53893,1.9354 -0.10504,2.28004 -0.59361,0.31769 -0.91667,0.34476 -1.16392,0.0975 z m -3.43958,-1.05833 c -0.32118,-0.32117 -0.18289,-1.6055 0.20777,-1.92973 0.51971,-0.43132 1.30879,-0.24456 1.42064,0.33623 0.18347,0.95265 -1.05619,2.16573 -1.62841,1.5935 z M 61.380976,140.22564 c -2.14765,-1.18465 -3.14648,-3.56374 -2.27088,-5.40894 0.27431,-0.57806 2.58685,-2.86774 6.10935,-6.04894 6.07891,-5.48993 6.09409,-5.51319 3.6966,-5.6641 -2.71271,-0.17075 -6.0549,1.00683 -7.71623,2.71872 -0.55922,0.57623 -1.36593,1.77823 -1.79268,2.67111 -0.70302,1.47089 -1.20779,2.04194 -1.20779,1.36637 0,-0.71821 1.40902,-3.28777 2.38117,-4.34244 1.94219,-2.10702 3.88671,-2.91623 9.51683,-3.96039 1.28838,-0.23894 2.94829,-0.77472 3.90559,-1.26062 0.91569,-0.46477 1.74951,-0.76043 1.85293,-0.65702 0.10342,0.10342 -0.43773,0.747 -1.20254,1.43017 -5.15355,4.6034 -12.44646,11.32913 -12.4641,11.49474 -0.0116,0.10914 0.31819,0.19844 0.73292,0.19844 0.93877,0 2.79529,1.31438 3.3375,2.36289 0.2235,0.43221 0.40636,1.3888 0.40636,2.12577 0,1.14801 -0.12551,1.4769 -0.8763,2.29616 -0.73071,0.79733 -1.09339,0.97524 -2.18282,1.07073 -0.95613,0.0838 -1.55306,-0.0215 -2.22591,-0.39265 z m 60.312514,-2.65514 c -0.90328,-0.93713 -1.40946,-1.74837 -1.69874,-2.72248 -0.50861,-1.71266 -0.5104,-2.52184 -0.0106,-4.79726 1.13992,-5.18971 1.14905,-5.25264 0.87589,-6.03624 -0.14893,-0.42723 -0.36944,-0.77678 -0.49002,-0.77678 -0.39692,0 -1.58904,2.78053 -1.89309,4.41547 -0.21223,1.14122 -0.21825,1.9192 -0.0209,2.6968 0.32538,1.28188 -0.0446,1.74444 -0.5141,0.64271 -0.52705,-1.23684 -0.37952,-4.72755 0.2994,-7.08415 0.45574,-1.58191 0.56613,-2.45595 0.44274,-3.50573 -0.23382,-1.9895 0.27221,-1.81821 1.54081,0.52156 0.5715,1.05405 1.92695,3.46427 3.01212,5.35604 1.08517,1.89177 2.56617,4.51115 3.2911,5.82084 0.72494,1.30968 1.35591,2.42298 1.40216,2.474 0.0463,0.051 0.35985,-0.17135 0.69689,-0.49413 1.44291,-1.38185 3.94178,-1.72305 5.77388,-0.78838 3.34322,1.70558 0.98808,5.32777 -3.236,4.97694 -0.76775,-0.0638 -1.70495,-0.31854 -2.08267,-0.56616 -0.41532,-0.27228 -1.77124,-2.38343 -3.43058,-5.34136 -1.5091,-2.69012 -2.83066,-4.89112 -2.93681,-4.89112 -0.35537,0 -2.11129,3.8716 -2.26052,4.98417 -0.23758,1.77124 0.38262,3.43918 1.80926,4.86583 0.6936,0.69359 1.13311,1.32681 0.98463,1.41858 -0.14751,0.0912 -0.8472,-0.43495 -1.55487,-1.16915 z m 167.55934,-11.21308 c -1.31522,-0.3408 -1.41669,-0.84205 -0.67549,-3.33682 0.35973,-1.21083 0.61286,-2.2321 0.56251,-2.26949 -1.01492,-0.75371 -4.5756,-2.52786 -4.74115,-2.36232 -0.12422,0.12422 -0.30411,0.89176 -0.39978,1.70564 l -0.17392,1.47978 1.22246,0.13779 c 1.37395,0.15487 2.01647,0.56406 2.01647,1.28424 0,1.08722 -2.17067,1.31622 -3.59987,0.37978 -0.78325,-0.51321 -0.78761,-0.83163 -0.0726,-5.31592 l 0.56084,-3.51754 2.15114,1.34533 c 1.18314,0.73993 2.7005,1.71409 3.37196,2.16478 l 1.22078,0.81944 -0.88474,2.77813 c -0.48659,1.52796 -0.88712,2.79221 -0.89005,2.80943 -0.003,0.0172 0.48728,0.0974 1.08939,0.17814 1.34326,0.18017 2.05089,0.77585 1.58644,1.33547 -0.42262,0.50922 -1.30421,0.65368 -2.34436,0.38414 z M 17.585806,123.4624 c -0.29104,-0.1752 -0.64823,-0.46391 -0.79375,-0.64158 -0.14552,-0.17767 -1.41259,-1.67459 -2.81571,-3.3265 -1.40312,-1.6519 -4.1693497,-4.90846 -6.1471897,-7.23679 -1.97783,-2.32834 -3.59803,-4.31759 -3.60043,-4.42057 -0.002,-0.10298 0.79929,-0.42547 1.78156,-0.71666 0.98226,-0.29118 5.2149697,-1.54638 9.4060197,-2.78933 4.19105,-1.24294 7.76379,-2.2599 7.93943,-2.2599 0.17563,0 0.63071,0.50602 1.01127,1.12448 5.79874,9.4237 7.46085,11.88262 7.71154,11.40839 1.48552,-2.81014 6.2267,-4.65576 6.91356,-2.69126 0.69115,1.97677 -1.82094,5.28971 -4.69331,6.18954 -1.38815,0.43487 -1.61397,0.44378 -2.24676,0.0886 -0.4187,-0.23501 -1.90699,-2.26565 -3.6764,-5.01616 -1.63511,-2.54171 -3.01823,-4.74036 -3.07361,-4.88588 -0.0819,-0.21519 -10.79451,3.18921 -13.28851,4.223 -0.65892,0.27313 -0.644,0.2984 2.29953,3.89466 l 2.96275,3.61975 0.75911,-0.97391 c 1.09591,-1.40603 1.98847,-2.10912 3.78423,-2.98092 1.99468,-0.96838 3.61891,-1.03888 4.21833,-0.18308 1.33616,1.90762 -0.94824,5.50192 -4.52508,7.11981 -1.4391,0.65094 -3.25157,0.86064 -3.92658,0.45431 z m 340.338484,-0.1019 c -1.26598,-0.6874 -1.21872,-1.96969 0.0878,-2.38438 0.41831,-0.13277 0.48811,-0.31653 0.35327,-0.93034 -0.39129,-1.78156 0.85233,-2.67698 2.91566,-2.09929 1.39435,0.3904 1.98287,0.0913 1.98287,-1.00762 0,-1.24463 1.03383,-2.92488 2.23147,-3.62675 1.28275,-0.75173 1.95162,-0.83192 2.17098,-0.26025 0.30242,0.78809 -0.23183,1.87436 -1.51791,3.08626 -1.23241,1.16135 -1.30083,1.29509 -1.15036,2.24896 0.21307,1.3507 -0.21055,2.35481 -1.26457,2.99745 -1.09625,0.66839 -2.45595,0.67457 -3.74566,0.017 -1.1304,-0.57632 -2.05324,-0.40522 -2.52018,0.46727 -0.21011,0.39257 -0.16378,0.60662 0.20317,0.9387 0.58359,0.52814 0.86106,0.55294 0.67191,0.0601 -0.19357,-0.50444 0.31764,-0.77209 1.09972,-0.5758 1.11442,0.2797 0.69617,1.50547 -0.4997,1.46449 -0.16999,-0.006 -0.62833,-0.18394 -1.01851,-0.39581 z m 5.21938,-2.3597 c 0.64609,-0.64609 0.78357,-1.33694 0.48649,-2.44478 -0.13089,-0.48807 -0.23304,-0.53238 -0.64066,-0.27782 -0.35425,0.22123 -0.44503,0.50232 -0.33689,1.04304 0.20418,1.02094 -0.30816,1.54289 -1.47159,1.49921 -0.57843,-0.0217 -0.73088,-0.0806 -0.3837,-0.14817 0.74695,-0.14541 1.1706,-0.66705 0.89884,-1.10677 -0.16769,-0.27133 -0.45344,-0.1964 -1.30778,0.34292 -0.60126,0.37956 -1.0932,0.7539 -1.0932,0.83186 0,0.26249 1.71323,0.88914 2.45943,0.89959 0.44291,0.006 1.00013,-0.25016 1.38906,-0.63908 z m -2.98333,-1.40109 1.11921,-0.7276 -0.87717,-0.0842 c -0.99579,-0.0956 -1.63637,0.31258 -1.63637,1.04264 0,0.64345 0.0664,0.63247 1.39433,-0.23084 z m 5.20136,-3.23103 c 0.58426,-0.31269 1.19296,-1.70811 0.98338,-2.25432 -0.41325,-1.07689 -1.75824,0.3262 -1.75824,1.83419 0,0.7466 0.0819,0.791 0.77486,0.42013 z m -270.352784,0.78878 c -1.04389,-0.25311 -2.03646,-0.94412 -2.7728,-1.93037 -0.46421,-0.62176 -0.48798,-0.8223 -0.20815,-1.7563 0.56607,-1.88937 2.82129,-2.79564 4.00679,-1.61014 0.56815,0.56815 0.62077,0.77634 0.36482,1.44336 -0.20959,0.54616 -1.46916,1.20248 -2.30774,1.20248 -0.35546,0 -0.71608,0.18185 -0.80137,0.40412 -0.19342,0.50404 1.19139,1.40117 2.02651,1.31284 0.32202,-0.0341 0.78971,-0.0771 1.03931,-0.0957 0.68005,-0.0506 2.35397,-1.62764 2.76059,-2.60082 1.032574,-2.47127 -0.17841,-5.2016 -3.06057,-6.90054 -1.48832,-0.87731 -0.96118,-1.09306 0.67555,-0.2765 2.73576,1.36488 4.840874,4.15885 4.853344,6.44153 0.0148,2.7151 -3.569844,5.095 -6.576284,4.36604 z m 7.150194,-1.41344 c -0.53251,-0.64163 -0.0751,-1.27612 0.85474,-1.18563 0.68337,0.0665 0.82612,0.19468 0.82612,0.74185 0,0.5145 -0.15199,0.67912 -0.68411,0.74098 -0.37625,0.0437 -0.82479,-0.09 -0.99675,-0.2972 z m 128.00087,-0.041 c -0.8645,-0.47012 -1.20768,-1.27151 -3.17401,-7.41174 -0.88498,-2.76352 -1.64681,-5.06232 -1.69294,-5.10846 -0.24976,-0.24976 -1.26262,1.71751 -1.65551,3.21549 -0.61731,2.35362 -0.24801,4.17136 1.25077,6.15649 1.1899,1.576 1.0839,1.89922 -0.18451,0.56263 -1.95667,-2.06185 -2.41225,-4.89333 -1.39632,-8.67834 0.34414,-1.28211 0.60832,-3.05392 0.61937,-4.15395 0.0106,-1.05503 0.10555,-1.91823 0.21101,-1.91823 0.10546,0 1.16449,3.00632 2.3534,6.68072 1.18891,3.67441 2.21457,6.77048 2.27924,6.88018 0.0647,0.10969 0.41662,-0.15595 0.78212,-0.59032 1.882,-2.23664 5.65299,-1.18166 5.65299,1.5815 0,2.29048 -2.95496,3.92095 -5.04561,2.78403 z m -126.94135,-3.01823 c -0.65177,-0.41304 -0.24061,-1.22101 0.62134,-1.22101 0.55944,0 0.81416,0.14362 0.88231,0.49746 0.0928,0.48206 -0.34159,0.94964 -0.88231,0.94964 -0.14552,0 -0.42513,-0.10174 -0.62134,-0.22609 z m 218.31521,-6.17095 c -0.99927,-1.06668 -1.11421,-1.77512 -0.74617,-4.59964 0.18785,-1.44169 0.28982,-2.71055 0.22661,-2.81969 -0.22119,-0.38193 -1.34128,-0.19369 -2.01885,0.33929 -0.54652,0.42989 -0.70305,0.81458 -0.78049,1.91823 l -0.0969,1.3805 -0.0489,-1.40646 c -0.0647,-1.85903 0.24823,-2.35652 1.95783,-3.11259 1.46019,-0.64577 1.74467,-0.9932 1.03593,-1.26517 -0.51838,-0.19892 -1.18044,0.0463 -1.91823,0.71039 -0.32743,0.29472 -0.59532,0.42253 -0.59532,0.28403 0,-0.42747 0.8055,-1.42791 1.1497,-1.42791 0.17925,0 0.7711,-0.22698 1.31524,-0.50439 l 0.98933,-0.50438 -0.13181,0.83511 c -0.0725,0.45931 -0.26215,1.96621 -0.42146,3.34866 -0.1593,1.38245 -0.33205,2.72872 -0.38388,2.99171 -0.0603,0.30594 0.13885,0.58438 0.5529,0.77304 1.47677,0.67286 2.25628,3.41163 1.02134,3.58844 -0.29882,0.0428 -0.7919,-0.19295 -1.10686,-0.52917 z M 181.28351,90.1119 c -0.45361,-0.45361 -0.39223,-1.44929 0.10101,-1.63856 1.20876,-0.46385 2.22732,0.0184 2.22732,1.05463 0,0.86736 -1.63489,1.27738 -2.32833,0.58393 z m 5.55625,-0.79375 c -0.47674,-0.47674 -0.38251,-1.21659 0.19427,-1.52527 0.76127,-0.40742 1.27891,-0.33529 1.87554,0.26134 0.42511,0.42511 0.47763,0.64285 0.25527,1.05833 -0.31975,0.59747 -1.80213,0.72855 -2.32508,0.2056 z M 1.0696463,72.01734 C 0.62191634,71.6406 0.25559634,71.08941 0.25559634,70.79246 c 0,-0.48367 0.11561,-0.44446 1.10980996,0.3764 0.6104,0.50397 1.15611,1.05517 1.21268,1.22488 0.18092,0.54276 -0.66776,0.33099 -1.50844,-0.3764 z M 138.92026,70.31112 c -1.27939,-0.18559 -2.40425,-1.19039 -2.40425,-2.14763 0,-2.38725 3.22729,-4.47554 5.67047,-3.66921 2.95807,0.97625 2.00644,4.89889 -1.40787,5.80326 -0.3799,0.10062 -1.21615,0.10673 -1.85835,0.0136 z m 224.17285,-4.95737 c -0.31221,-0.0491 -0.76573,-0.30819 -1.00782,-0.57569 -0.41151,-0.4547 -0.39794,-0.68639 0.20844,-3.5591 0.35671,-1.69001 0.56208,-3.1262 0.45638,-3.19153 -0.10571,-0.0653 -0.67818,0.12165 -1.27215,0.41553 -1.38702,0.68623 -2.01342,1.89231 -1.64679,3.17069 0.36018,1.25588 0.284,1.58257 -0.14867,0.63763 -0.45127,-0.98555 -0.48281,-2.10375 -0.0807,-2.86167 0.16864,-0.31785 1.10812,-1.35182 2.08774,-2.29771 0.9796,-0.94588 1.83738,-1.89838 1.90611,-2.11666 0.0688,-0.21828 0.18945,-0.33735 0.26816,-0.26459 0.1143,0.10563 -0.68069,4.19095 -1.53437,7.88489 -0.0931,0.40278 -0.0259,0.59366 0.19846,0.56397 1.1053,-0.14627 1.81809,0.0726 2.21644,0.68059 0.65477,0.99927 -0.16197,1.74797 -1.65121,1.51365 z M 130.07503,59.47394 c -0.81277,-0.71362 -0.96735,-1.01968 -0.96735,-1.91519 0,-1.38679 0.75877,-2.58229 2.12703,-3.3513 1.46571,-0.82377 3.87527,-0.70943 4.87675,0.23141 1.38697,1.30299 1.02877,3.53569 -0.78976,4.92275 -0.77983,0.59481 -1.33005,0.77388 -2.6326,0.85682 -1.54529,0.0984 -1.70629,0.0525 -2.61407,-0.74449 z M 321.74834,42.295669 c -0.20508,-0.12983 -0.5149,-0.18156 -0.68847,-0.11495 -0.17357,0.0666 -0.51454,-0.18254 -0.75769,-0.55365 l -0.44212,-0.67475 h 0.91374 c 0.74531,0 0.92932,0.10943 0.99828,0.59361 0.0592,0.41548 0.32273,0.64428 0.87831,0.76245 0.71344,0.15175 0.72683,0.17159 0.13229,0.19608 -0.3638,0.015 -0.82926,-0.079 -1.03434,-0.20879 z m -0.55316,-0.68189 c 0,-0.21828 -0.11906,-0.39688 -0.26459,-0.39688 -0.14552,0 -0.26458,0.1786 -0.26458,0.39688 0,0.21828 0.11906,0.39687 0.26458,0.39687 0.14553,0 0.26459,-0.17859 0.26459,-0.39687 z m -84.66668,-5.82083 c 0.34178,-0.36381 0.68094,-0.66146 0.7537,-0.66146 0.0728,0 -0.14734,0.29765 -0.48911,0.66146 -0.34178,0.3638 -0.68094,0.66145 -0.7537,0.66145 -0.0728,0 0.14734,-0.29765 0.48911,-0.66145 z m -4.23333,-1.27342 c 0,-0.0455 0.38695,-0.43249 0.8599,-0.8599 l 0.85989,-0.7771 -0.7771,0.8599 c -0.72437,0.80154 -0.94269,0.98151 -0.94269,0.7771 z m 5.82083,-0.0171 c 0,-0.0549 0.20836,-0.2633 0.46302,-0.46302 0.41965,-0.32911 0.42901,-0.31975 0.0999,0.0999 -0.34564,0.44074 -0.56291,0.5809 -0.56291,0.36314 z M 89.552466,33.825759 c -1.82781,-0.44498 -4.15246,-2.02981 -4.60013,-3.13615 -0.23109,-0.57105 -3.20508,-14.25155 -3.20508,-14.74347 0,-0.25423 -1.09079,-0.12275 -1.94597,0.23456 -2.13773,0.8932 -3.87486,3.22011 -3.87486,5.19043 0,1.38741 0.50839,2.57765 1.98461,4.64639 0.65472,0.9175 1.19039,1.73241 1.19039,1.81091 0,0.4635 -0.88154,-0.36097 -2.03479,-1.90306 -3.11615,-4.16683 -2.9446,-6.63865 0.73361,-10.57067 1.71391,-1.83217 2.6241,-3.37272 2.6241,-4.44143 0,-0.50125 0.12034,-0.66787 0.43757,-0.60585 0.34823,0.0681 0.81722,1.84129 2.29691,8.6845 1.02263,4.72943 1.87901,8.63029 1.90305,8.66858 0.0241,0.0383 0.50824,-0.12447 1.07598,-0.36169 3.02737,-1.26491 8.62198,1.07088 9.23349,3.85505 0.47163,2.1473 -2.45456,3.49095 -5.81888,2.67191 z m 151.209374,-1.43998 c 0,-0.0549 0.20836,-0.2633 0.46302,-0.46302 0.41964,-0.32911 0.429,-0.31975 0.0999,0.0999 -0.34565,0.44073 -0.56292,0.58088 -0.56292,0.36312 z m -2.38125,-0.79375 c 0,-0.0549 0.20836,-0.2633 0.46302,-0.46302 0.41964,-0.32911 0.429,-0.31975 0.0999,0.0999 -0.34565,0.44073 -0.56292,0.58088 -0.56292,0.36312 z m 3.43958,0 c 0,-0.0549 0.20836,-0.2633 0.46302,-0.46302 0.41965,-0.32911 0.429,-0.31975 0.0999,0.0999 -0.34564,0.44073 -0.56292,0.58088 -0.56292,0.36312 z m -1.98438,-1.22302 c 0.26339,-0.29104 0.53843,-0.52917 0.61119,-0.52917 0.0728,0 -0.0832,0.23813 -0.3466,0.52917 -0.26339,0.29104 -0.53842,0.52916 -0.61118,0.52916 -0.0728,0 0.0832,-0.23812 0.34659,-0.52916 z m -8.06979,-0.92604 c 0.49366,-0.50933 0.95709,-0.92605 1.02985,-0.92605 0.0728,0 -0.27161,0.41672 -0.76526,0.92605 -0.49366,0.50932 -0.95709,0.92604 -1.02985,0.92604 -0.0728,0 0.27161,-0.41672 0.76526,-0.92604 z m 112.60213,-0.52917 c -0.42622,-3.9105 -0.38476,-3.77031 -1.11512,-3.77031 -0.82595,0 -1.54937,-0.67117 -1.33252,-1.23626 0.22294,-0.58095 1.67611,-0.54768 1.99276,0.0456 0.13595,0.25466 0.33155,1.14062 0.43474,1.96879 0.17113,1.37361 0.23008,1.47925 0.67154,1.20355 0.26617,-0.16623 0.60246,-0.54617 0.74732,-0.84431 0.17452,-0.35925 0.26691,-0.40823 0.27389,-0.14522 0.006,0.21829 -0.34274,0.86379 -0.77454,1.43446 -0.9135,1.20728 -0.78242,1.69726 0.16087,0.60131 0.76761,-0.89185 0.86164,-0.53818 0.11073,0.41647 -0.29052,0.36933 -0.6336,0.95094 -0.76243,1.29245 -0.19386,0.51395 -0.26402,0.34741 -0.40724,-0.96656 z m -103.60629,0.82614 c 0,-0.0549 0.20836,-0.2633 0.46302,-0.46302 0.41964,-0.3291 0.429,-0.31975 0.0999,0.0999 -0.34565,0.44073 -0.56292,0.58089 -0.56292,0.36313 z m 4.49791,-0.54294 c 0,-0.0728 0.23813,-0.25973 0.52917,-0.41549 0.29104,-0.15576 0.52917,-0.22367 0.52917,-0.15091 0,0.0728 -0.23813,0.25973 -0.52917,0.41549 -0.29104,0.15576 -0.52917,0.22367 -0.52917,0.15091 z m 57.94376,-0.54778 -0.6214,-0.66146 0.61307,-0.65258 0.61306,-0.65258 0.72829,0.51861 c 0.61937,0.44101 0.751,0.45948 0.87998,0.12341 0.19058,-0.49668 0.962,-0.52131 0.962,-0.0307 0,0.20046 -0.17063,0.50608 -0.37917,0.67916 -0.29779,0.24715 -0.52637,0.21823 -1.06511,-0.13477 -0.64865,-0.42501 -0.71469,-0.42343 -1.2146,0.029 -0.39362,0.35622 -0.44481,0.5302 -0.20052,0.68119 0.18047,0.11153 0.48381,0.0736 0.6741,-0.0844 0.42937,-0.35634 0.71618,-0.10813 0.50649,0.4383 -0.22844,0.5953 -0.78806,0.5006 -1.49619,-0.25317 z m -67.46876,-0.26459 c 0.34178,-0.3638 0.68094,-0.66146 0.7537,-0.66146 0.0728,0 -0.14734,0.29766 -0.48911,0.66146 -0.34178,0.36381 -0.68094,0.66146 -0.7537,0.66146 -0.0728,0 0.14734,-0.29765 0.48911,-0.66146 z m 6.99362,-0.10342 c 0.18877,-0.30543 1.20847,-0.92146 1.20847,-0.73006 0,0.0611 -0.31232,0.3158 -0.69404,0.56592 -0.38172,0.25011 -0.61321,0.32397 -0.51443,0.16414 z m 3.8543,0.11701 c 0,-0.0728 0.35719,-0.317 0.79375,-0.54275 0.43656,-0.22576 0.79375,-0.35094 0.79375,-0.27818 0,0.0728 -0.35719,0.317 -0.79375,0.54276 -0.43656,0.22576 -0.79375,0.35093 -0.79375,0.27817 z m -6.3803,-0.89878 c 0.77655,-0.69415 0.84697,-0.85455 0.52917,-1.20534 -1.00401,-1.10826 -1.02224,-1.1571 -0.5692,-1.52436 0.3107,-0.25188 0.37923,-0.25855 0.23779,-0.0231 -0.14396,0.23963 0.0584,0.33073 0.73466,0.33073 0.72444,0 0.89898,0.0896 0.77977,0.40024 -0.0845,0.22013 -0.007,0.57732 0.17299,0.79375 0.26763,0.32247 0.24402,0.39351 -0.13076,0.39351 -0.25154,0 -0.95073,0.36794 -1.55376,0.81764 l -1.0964,0.81765 z m 1.35322,-1.33137 c 0,-0.1277 -0.1786,-0.3804 -0.39688,-0.56156 -0.32187,-0.26713 -0.39687,-0.25658 -0.39687,0.0558 0,0.21184 0.0794,0.46455 0.17639,0.56156 0.25127,0.25127 0.61736,0.21818 0.61736,-0.0558 z m -7.40834,0.89365 c 0.49366,-0.50933 0.95709,-0.92605 1.02985,-0.92605 0.0728,0 -0.27161,0.41672 -0.76526,0.92605 -0.49366,0.50932 -0.95709,0.92604 -1.02985,0.92604 -0.0728,0 0.27161,-0.41672 0.76526,-0.92604 z m 3.175,0.0324 c 0,-0.0549 0.20836,-0.2633 0.46302,-0.46302 0.41965,-0.32911 0.42901,-0.31975 0.0999,0.0999 -0.34564,0.44073 -0.56291,0.58088 -0.56291,0.36312 z m 1.45521,-1.22302 c 0.26339,-0.29105 0.53842,-0.52917 0.61118,-0.52917 0.0728,0 -0.0832,0.23812 -0.3466,0.52917 -0.26339,0.29104 -0.53842,0.52916 -0.61118,0.52916 -0.0728,0 0.0832,-0.23812 0.3466,-0.52916 z m 4.05172,-0.36049 c 0.46598,-0.34379 1.13827,-0.9391 1.49398,-1.32292 0.63291,-0.68292 1.73034,-0.95771 1.73034,-0.43326 0,0.36553 -0.98549,1.31846 -1.38906,1.34316 -0.81243,0.0497 -1.33618,0.23419 -1.76383,0.62121 -0.25336,0.22928 -0.5637,0.41688 -0.68966,0.41688 -0.12595,0 0.15225,-0.28128 0.61823,-0.62507 z m 3.48891,0.5114 c 0,-0.0728 0.23812,-0.25974 0.52916,-0.4155 0.29104,-0.15576 0.52917,-0.22367 0.52917,-0.15091 0,0.0728 -0.23813,0.25974 -0.52917,0.4155 -0.29104,0.15576 -0.52916,0.22367 -0.52916,0.15091 z m -10.05417,-0.81238 c 0.34178,-0.3638 0.68094,-0.66146 0.7537,-0.66146 0.0728,0 -0.14734,0.29766 -0.48912,0.66146 -0.34177,0.36381 -0.68094,0.66146 -0.7537,0.66146 -0.0728,0 0.14734,-0.29765 0.48912,-0.66146 z m 109.46639,-0.11108 c -0.1151,-0.44009 -0.0807,-0.5434 0.11567,-0.34706 0.15378,0.15375 0.22749,0.43572 0.16389,0.62661 -0.0661,0.19816 -0.18601,0.0782 -0.27956,-0.27955 z m -108.01118,-1.07954 c 0.26339,-0.29104 0.53842,-0.52917 0.61118,-0.52917 0.0728,0 -0.0832,0.23813 -0.3466,0.52917 -0.26339,0.29104 -0.53842,0.52916 -0.61118,0.52916 -0.0728,0 0.0832,-0.23812 0.3466,-0.52916 z m 3.04271,0.43291 c 0,-0.0728 0.35718,-0.38664 0.79375,-0.6975 0.43656,-0.31085 0.79375,-0.50566 0.79375,-0.4329 0,0.0728 -0.35719,0.38663 -0.79375,0.69749 -0.43657,0.31086 -0.79375,0.50567 -0.79375,0.43291 z m -2.11667,-1.06197 c 0,-0.0549 0.20836,-0.2633 0.46302,-0.46303 0.41965,-0.3291 0.429,-0.31974 0.0999,0.0999 -0.34564,0.44073 -0.56292,0.58089 -0.56292,0.36313 z m 7.67292,-0.0188 c 0,-0.0728 0.35718,-0.317 0.79375,-0.54276 0.43656,-0.22576 0.79375,-0.35093 0.79375,-0.27817 0,0.0728 -0.35719,0.317 -0.79375,0.54275 -0.43657,0.22576 -0.79375,0.35094 -0.79375,0.27818 z m -3.3073,-0.54755 c 0.29105,-0.23697 0.7673,-0.54777 1.05834,-0.69065 l 0.52916,-0.25979 -0.52916,0.43085 c -0.29104,0.23698 -0.76729,0.54777 -1.05834,0.69065 l -0.52916,0.2598 z m -3.30729,-0.22739 c 0,-0.0549 0.20836,-0.2633 0.46302,-0.46302 0.41965,-0.32911 0.42901,-0.31975 0.0999,0.0999 -0.34564,0.44073 -0.56291,0.58088 -0.56291,0.36312 z m 1.05834,-0.82377 c 0,-0.21194 5.4849,-3.79164 6.94531,-4.53283 1.87818,-0.95322 1.51571,-0.55384 -0.52917,0.58304 -0.98226,0.5461 -2.82773,1.69051 -4.10104,2.54313 -1.27331,0.85262 -2.3151,1.48562 -2.3151,1.40666 z m 4.10192,-0.1361 c 0.17719,-0.2867 1.71891,-1.14554 1.71891,-0.95754 0,0.0621 -0.42387,0.36304 -0.94194,0.66871 -0.51807,0.30566 -0.8677,0.43564 -0.77697,0.28883 z"
       style="fill:#000000;stroke-width:0.264583" />
  </g>
</svg>
